%TF.GenerationSoftware,KiCad,Pcbnew,7.0.2*%
%TF.CreationDate,2023-05-13T14:05:58-05:00*%
%TF.ProjectId,BreadboardLEDArray,42726561-6462-46f6-9172-644c45444172,0*%
%TF.SameCoordinates,Original*%
%TF.FileFunction,Copper,L2,Bot*%
%TF.FilePolarity,Positive*%
%FSLAX46Y46*%
G04 Gerber Fmt 4.6, Leading zero omitted, Abs format (unit mm)*
G04 Created by KiCad (PCBNEW 7.0.2) date 2023-05-13 14:05:58*
%MOMM*%
%LPD*%
G01*
G04 APERTURE LIST*
%TA.AperFunction,ComponentPad*%
%ADD10R,1.800000X1.800000*%
%TD*%
%TA.AperFunction,ComponentPad*%
%ADD11C,1.800000*%
%TD*%
%TA.AperFunction,ComponentPad*%
%ADD12R,1.600000X1.600000*%
%TD*%
%TA.AperFunction,ComponentPad*%
%ADD13O,1.600000X1.600000*%
%TD*%
%TA.AperFunction,ComponentPad*%
%ADD14R,1.700000X1.700000*%
%TD*%
%TA.AperFunction,ComponentPad*%
%ADD15O,1.700000X1.700000*%
%TD*%
%TA.AperFunction,Conductor*%
%ADD16C,0.250000*%
%TD*%
G04 APERTURE END LIST*
D10*
%TO.P,D1,1,K*%
%TO.N,Net-(D1-K)*%
X168910000Y-114935000D03*
D11*
%TO.P,D1,2,A*%
%TO.N,Net-(D1-A)*%
X168910000Y-117475000D03*
%TD*%
D12*
%TO.P,RN1,1,common*%
%TO.N,Net-(J1-Pin_1)*%
X171450000Y-111125000D03*
D13*
%TO.P,RN1,2,R1*%
%TO.N,Net-(D1-K)*%
X168910000Y-111125000D03*
%TO.P,RN1,3,R2*%
%TO.N,Net-(D2-K)*%
X166370000Y-111125000D03*
%TO.P,RN1,4,R3*%
%TO.N,Net-(D3-K)*%
X163830000Y-111125000D03*
%TO.P,RN1,5,R4*%
%TO.N,Net-(D4-K)*%
X161290000Y-111125000D03*
%TO.P,RN1,6,R5*%
%TO.N,Net-(D5-K)*%
X158750000Y-111125000D03*
%TO.P,RN1,7,R6*%
%TO.N,Net-(D6-K)*%
X156210000Y-111125000D03*
%TO.P,RN1,8,R7*%
%TO.N,Net-(D7-K)*%
X153670000Y-111125000D03*
%TO.P,RN1,9,R8*%
%TO.N,Net-(D8-K)*%
X151130000Y-111125000D03*
%TD*%
D10*
%TO.P,D8,1,K*%
%TO.N,Net-(D8-K)*%
X151130000Y-114935000D03*
D11*
%TO.P,D8,2,A*%
%TO.N,Net-(D8-A)*%
X151130000Y-117475000D03*
%TD*%
D14*
%TO.P,J1,1,Pin_1*%
%TO.N,Net-(J1-Pin_1)*%
X171450000Y-121285000D03*
D15*
%TO.P,J1,2,Pin_2*%
%TO.N,Net-(D1-A)*%
X168910000Y-121285000D03*
%TO.P,J1,3,Pin_3*%
%TO.N,Net-(D2-A)*%
X166370000Y-121285000D03*
%TO.P,J1,4,Pin_4*%
%TO.N,Net-(D3-A)*%
X163830000Y-121285000D03*
%TO.P,J1,5,Pin_5*%
%TO.N,Net-(D4-A)*%
X161290000Y-121285000D03*
%TO.P,J1,6,Pin_6*%
%TO.N,Net-(D5-A)*%
X158750000Y-121285000D03*
%TO.P,J1,7,Pin_7*%
%TO.N,Net-(D6-A)*%
X156210000Y-121285000D03*
%TO.P,J1,8,Pin_8*%
%TO.N,Net-(D7-A)*%
X153670000Y-121285000D03*
%TO.P,J1,9,Pin_9*%
%TO.N,Net-(D8-A)*%
X151130000Y-121285000D03*
%TD*%
D10*
%TO.P,D6,1,K*%
%TO.N,Net-(D6-K)*%
X156210000Y-114935000D03*
D11*
%TO.P,D6,2,A*%
%TO.N,Net-(D6-A)*%
X156210000Y-117475000D03*
%TD*%
D10*
%TO.P,D3,1,K*%
%TO.N,Net-(D3-K)*%
X163830000Y-114935000D03*
D11*
%TO.P,D3,2,A*%
%TO.N,Net-(D3-A)*%
X163830000Y-117475000D03*
%TD*%
D10*
%TO.P,D5,1,K*%
%TO.N,Net-(D5-K)*%
X158750000Y-114935000D03*
D11*
%TO.P,D5,2,A*%
%TO.N,Net-(D5-A)*%
X158750000Y-117475000D03*
%TD*%
D10*
%TO.P,D4,1,K*%
%TO.N,Net-(D4-K)*%
X161290000Y-114935000D03*
D11*
%TO.P,D4,2,A*%
%TO.N,Net-(D4-A)*%
X161290000Y-117475000D03*
%TD*%
D10*
%TO.P,D2,1,K*%
%TO.N,Net-(D2-K)*%
X166370000Y-114935000D03*
D11*
%TO.P,D2,2,A*%
%TO.N,Net-(D2-A)*%
X166370000Y-117475000D03*
%TD*%
D10*
%TO.P,D7,1,K*%
%TO.N,Net-(D7-K)*%
X153670000Y-114935000D03*
D11*
%TO.P,D7,2,A*%
%TO.N,Net-(D7-A)*%
X153670000Y-117475000D03*
%TD*%
D16*
%TO.N,Net-(D1-K)*%
X168910000Y-110490000D02*
X168910000Y-114935000D01*
%TO.N,Net-(D1-A)*%
X168910000Y-117475000D02*
X168910000Y-121285000D01*
%TO.N,Net-(D2-K)*%
X166370000Y-110490000D02*
X166370000Y-114935000D01*
%TO.N,Net-(D2-A)*%
X166370000Y-121285000D02*
X166370000Y-117475000D01*
%TO.N,Net-(D3-A)*%
X163830000Y-117475000D02*
X163830000Y-121285000D01*
%TO.N,Net-(D4-K)*%
X161290000Y-110490000D02*
X161290000Y-114935000D01*
%TO.N,Net-(D4-A)*%
X161290000Y-121285000D02*
X161290000Y-117475000D01*
%TO.N,Net-(D5-K)*%
X158750000Y-110490000D02*
X158750000Y-114935000D01*
%TO.N,Net-(D5-A)*%
X158750000Y-117475000D02*
X158750000Y-121285000D01*
%TO.N,Net-(D6-K)*%
X156210000Y-110490000D02*
X156210000Y-114935000D01*
%TO.N,Net-(D6-A)*%
X156210000Y-121285000D02*
X156210000Y-117475000D01*
%TO.N,Net-(D7-K)*%
X153670000Y-110490000D02*
X153670000Y-114935000D01*
%TO.N,Net-(D7-A)*%
X153670000Y-117475000D02*
X153670000Y-121285000D01*
%TO.N,Net-(D8-K)*%
X151130000Y-110490000D02*
X151130000Y-114935000D01*
%TO.N,Net-(D8-A)*%
X151130000Y-121285000D02*
X151130000Y-117475000D01*
%TO.N,Net-(J1-Pin_1)*%
X171450000Y-121285000D02*
X171450000Y-110490000D01*
%TO.N,Net-(D3-K)*%
X163830000Y-110490000D02*
X163830000Y-114935000D01*
%TD*%
M02*
