%TF.GenerationSoftware,KiCad,Pcbnew,7.0.2*%
%TF.CreationDate,2023-05-13T14:05:58-05:00*%
%TF.ProjectId,BreadboardLEDArray,42726561-6462-46f6-9172-644c45444172,0*%
%TF.SameCoordinates,Original*%
%TF.FileFunction,Legend,Top*%
%TF.FilePolarity,Positive*%
%FSLAX46Y46*%
G04 Gerber Fmt 4.6, Leading zero omitted, Abs format (unit mm)*
G04 Created by KiCad (PCBNEW 7.0.2) date 2023-05-13 14:05:58*
%MOMM*%
%LPD*%
G01*
G04 APERTURE LIST*
%ADD10C,0.120000*%
G04 APERTURE END LIST*
D10*
%TO.C,D1*%
X169970000Y-113645000D02*
X167850000Y-113645000D01*
X169970000Y-113645000D02*
X169970000Y-113855000D01*
X167850000Y-113645000D02*
X167850000Y-113855000D01*
X169970000Y-113765000D02*
X167850000Y-113765000D01*
X169970000Y-116015000D02*
X169970000Y-116746000D01*
X167850000Y-116015000D02*
X167850000Y-116746000D01*
X169970000Y-118205000D02*
X169970000Y-118765000D01*
X167850000Y-118205000D02*
X167850000Y-118765000D01*
X169970000Y-118765000D02*
X167850000Y-118765000D01*
%TO.C,RN1*%
X172890000Y-112525000D02*
X172890000Y-109725000D01*
X172890000Y-109725000D02*
X149690000Y-109725000D01*
X170180000Y-112525000D02*
X170180000Y-109725000D01*
X149690000Y-112525000D02*
X172890000Y-112525000D01*
X149690000Y-109725000D02*
X149690000Y-112525000D01*
%TO.C,D8*%
X152190000Y-113645000D02*
X150070000Y-113645000D01*
X152190000Y-113645000D02*
X152190000Y-113855000D01*
X150070000Y-113645000D02*
X150070000Y-113855000D01*
X152190000Y-113765000D02*
X150070000Y-113765000D01*
X152190000Y-116015000D02*
X152190000Y-116746000D01*
X150070000Y-116015000D02*
X150070000Y-116746000D01*
X152190000Y-118205000D02*
X152190000Y-118765000D01*
X150070000Y-118205000D02*
X150070000Y-118765000D01*
X152190000Y-118765000D02*
X150070000Y-118765000D01*
%TO.C,J1*%
X172720000Y-120015000D02*
X172720000Y-121285000D01*
X171450000Y-120015000D02*
X172720000Y-120015000D01*
X169290000Y-122327929D02*
X169290000Y-122725000D01*
X168530000Y-122327929D02*
X168530000Y-122725000D01*
X166750000Y-122327929D02*
X166750000Y-122725000D01*
X165990000Y-122327929D02*
X165990000Y-122725000D01*
X164210000Y-122327929D02*
X164210000Y-122725000D01*
X163450000Y-122327929D02*
X163450000Y-122725000D01*
X161670000Y-122327929D02*
X161670000Y-122725000D01*
X160910000Y-122327929D02*
X160910000Y-122725000D01*
X159130000Y-122327929D02*
X159130000Y-122725000D01*
X158370000Y-122327929D02*
X158370000Y-122725000D01*
X156590000Y-122327929D02*
X156590000Y-122725000D01*
X155830000Y-122327929D02*
X155830000Y-122725000D01*
X154050000Y-122327929D02*
X154050000Y-122725000D01*
X153290000Y-122327929D02*
X153290000Y-122725000D01*
X151510000Y-122327929D02*
X151510000Y-122725000D01*
X150750000Y-122327929D02*
X150750000Y-122725000D01*
X171830000Y-122395000D02*
X171830000Y-122725000D01*
X171070000Y-122395000D02*
X171070000Y-122725000D01*
X172780000Y-122725000D02*
X149800000Y-122725000D01*
X170180000Y-122725000D02*
X170180000Y-125385000D01*
X167640000Y-122725000D02*
X167640000Y-125385000D01*
X165100000Y-122725000D02*
X165100000Y-125385000D01*
X162560000Y-122725000D02*
X162560000Y-125385000D01*
X160020000Y-122725000D02*
X160020000Y-125385000D01*
X157480000Y-122725000D02*
X157480000Y-125385000D01*
X154940000Y-122725000D02*
X154940000Y-125385000D01*
X152400000Y-122725000D02*
X152400000Y-125385000D01*
X149800000Y-122725000D02*
X149800000Y-125385000D01*
X172780000Y-125385000D02*
X172780000Y-122725000D01*
X171830000Y-125385000D02*
X171830000Y-131385000D01*
X171770000Y-125385000D02*
X171770000Y-131385000D01*
X171650000Y-125385000D02*
X171650000Y-131385000D01*
X171530000Y-125385000D02*
X171530000Y-131385000D01*
X171410000Y-125385000D02*
X171410000Y-131385000D01*
X171290000Y-125385000D02*
X171290000Y-131385000D01*
X171170000Y-125385000D02*
X171170000Y-131385000D01*
X169290000Y-125385000D02*
X169290000Y-131385000D01*
X166750000Y-125385000D02*
X166750000Y-131385000D01*
X164210000Y-125385000D02*
X164210000Y-131385000D01*
X161670000Y-125385000D02*
X161670000Y-131385000D01*
X159130000Y-125385000D02*
X159130000Y-131385000D01*
X156590000Y-125385000D02*
X156590000Y-131385000D01*
X154050000Y-125385000D02*
X154050000Y-131385000D01*
X151510000Y-125385000D02*
X151510000Y-131385000D01*
X149800000Y-125385000D02*
X172780000Y-125385000D01*
X171830000Y-131385000D02*
X171070000Y-131385000D01*
X171070000Y-131385000D02*
X171070000Y-125385000D01*
X169290000Y-131385000D02*
X168530000Y-131385000D01*
X168530000Y-131385000D02*
X168530000Y-125385000D01*
X166750000Y-131385000D02*
X165990000Y-131385000D01*
X165990000Y-131385000D02*
X165990000Y-125385000D01*
X164210000Y-131385000D02*
X163450000Y-131385000D01*
X163450000Y-131385000D02*
X163450000Y-125385000D01*
X161670000Y-131385000D02*
X160910000Y-131385000D01*
X160910000Y-131385000D02*
X160910000Y-125385000D01*
X159130000Y-131385000D02*
X158370000Y-131385000D01*
X158370000Y-131385000D02*
X158370000Y-125385000D01*
X156590000Y-131385000D02*
X155830000Y-131385000D01*
X155830000Y-131385000D02*
X155830000Y-125385000D01*
X154050000Y-131385000D02*
X153290000Y-131385000D01*
X153290000Y-131385000D02*
X153290000Y-125385000D01*
X151510000Y-131385000D02*
X150750000Y-131385000D01*
X150750000Y-131385000D02*
X150750000Y-125385000D01*
%TO.C,D6*%
X157270000Y-113645000D02*
X155150000Y-113645000D01*
X157270000Y-113645000D02*
X157270000Y-113855000D01*
X155150000Y-113645000D02*
X155150000Y-113855000D01*
X157270000Y-113765000D02*
X155150000Y-113765000D01*
X157270000Y-116015000D02*
X157270000Y-116746000D01*
X155150000Y-116015000D02*
X155150000Y-116746000D01*
X157270000Y-118205000D02*
X157270000Y-118765000D01*
X155150000Y-118205000D02*
X155150000Y-118765000D01*
X157270000Y-118765000D02*
X155150000Y-118765000D01*
%TO.C,D3*%
X164890000Y-113645000D02*
X162770000Y-113645000D01*
X164890000Y-113645000D02*
X164890000Y-113855000D01*
X162770000Y-113645000D02*
X162770000Y-113855000D01*
X164890000Y-113765000D02*
X162770000Y-113765000D01*
X164890000Y-116015000D02*
X164890000Y-116746000D01*
X162770000Y-116015000D02*
X162770000Y-116746000D01*
X164890000Y-118205000D02*
X164890000Y-118765000D01*
X162770000Y-118205000D02*
X162770000Y-118765000D01*
X164890000Y-118765000D02*
X162770000Y-118765000D01*
%TO.C,D5*%
X159810000Y-113645000D02*
X157690000Y-113645000D01*
X159810000Y-113645000D02*
X159810000Y-113855000D01*
X157690000Y-113645000D02*
X157690000Y-113855000D01*
X159810000Y-113765000D02*
X157690000Y-113765000D01*
X159810000Y-116015000D02*
X159810000Y-116746000D01*
X157690000Y-116015000D02*
X157690000Y-116746000D01*
X159810000Y-118205000D02*
X159810000Y-118765000D01*
X157690000Y-118205000D02*
X157690000Y-118765000D01*
X159810000Y-118765000D02*
X157690000Y-118765000D01*
%TO.C,D4*%
X162350000Y-113645000D02*
X160230000Y-113645000D01*
X162350000Y-113645000D02*
X162350000Y-113855000D01*
X160230000Y-113645000D02*
X160230000Y-113855000D01*
X162350000Y-113765000D02*
X160230000Y-113765000D01*
X162350000Y-116015000D02*
X162350000Y-116746000D01*
X160230000Y-116015000D02*
X160230000Y-116746000D01*
X162350000Y-118205000D02*
X162350000Y-118765000D01*
X160230000Y-118205000D02*
X160230000Y-118765000D01*
X162350000Y-118765000D02*
X160230000Y-118765000D01*
%TO.C,D2*%
X167430000Y-113645000D02*
X165310000Y-113645000D01*
X167430000Y-113645000D02*
X167430000Y-113855000D01*
X165310000Y-113645000D02*
X165310000Y-113855000D01*
X167430000Y-113765000D02*
X165310000Y-113765000D01*
X167430000Y-116015000D02*
X167430000Y-116746000D01*
X165310000Y-116015000D02*
X165310000Y-116746000D01*
X167430000Y-118205000D02*
X167430000Y-118765000D01*
X165310000Y-118205000D02*
X165310000Y-118765000D01*
X167430000Y-118765000D02*
X165310000Y-118765000D01*
%TO.C,D7*%
X154730000Y-113645000D02*
X152610000Y-113645000D01*
X154730000Y-113645000D02*
X154730000Y-113855000D01*
X152610000Y-113645000D02*
X152610000Y-113855000D01*
X154730000Y-113765000D02*
X152610000Y-113765000D01*
X154730000Y-116015000D02*
X154730000Y-116746000D01*
X152610000Y-116015000D02*
X152610000Y-116746000D01*
X154730000Y-118205000D02*
X154730000Y-118765000D01*
X152610000Y-118205000D02*
X152610000Y-118765000D01*
X154730000Y-118765000D02*
X152610000Y-118765000D01*
%TD*%
M02*
