M48
; DRILL file {KiCad 7.0.2} date Sat May 13 14:06:09 2023
; FORMAT={-:-/ absolute / inch / decimal}
; #@! TF.CreationDate,2023-05-13T14:06:09-05:00
; #@! TF.GenerationSoftware,Kicad,Pcbnew,7.0.2
; #@! TF.FileFunction,Plated,1,2,PTH
FMAT,2
INCH
; #@! TA.AperFunction,Plated,PTH,ComponentDrill
T1C0.0315
; #@! TA.AperFunction,Plated,PTH,ComponentDrill
T2C0.0354
; #@! TA.AperFunction,Plated,PTH,ComponentDrill
T3C0.0394
%
G90
G05
T1
X5.95Y-4.375
X6.05Y-4.375
X6.15Y-4.375
X6.25Y-4.375
X6.35Y-4.375
X6.45Y-4.375
X6.55Y-4.375
X6.65Y-4.375
X6.75Y-4.375
T2
X5.95Y-4.525
X5.95Y-4.625
X6.05Y-4.525
X6.05Y-4.625
X6.15Y-4.525
X6.15Y-4.625
X6.25Y-4.525
X6.25Y-4.625
X6.35Y-4.525
X6.35Y-4.625
X6.45Y-4.525
X6.45Y-4.625
X6.55Y-4.525
X6.55Y-4.625
X6.65Y-4.525
X6.65Y-4.625
T3
X5.95Y-4.775
X6.05Y-4.775
X6.15Y-4.775
X6.25Y-4.775
X6.35Y-4.775
X6.45Y-4.775
X6.55Y-4.775
X6.65Y-4.775
X6.75Y-4.775
T0
M30
