%TF.GenerationSoftware,KiCad,Pcbnew,7.0.2*%
%TF.CreationDate,2023-05-13T14:05:58-05:00*%
%TF.ProjectId,BreadboardLEDArray,42726561-6462-46f6-9172-644c45444172,0*%
%TF.SameCoordinates,Original*%
%TF.FileFunction,Legend,Bot*%
%TF.FilePolarity,Positive*%
%FSLAX46Y46*%
G04 Gerber Fmt 4.6, Leading zero omitted, Abs format (unit mm)*
G04 Created by KiCad (PCBNEW 7.0.2) date 2023-05-13 14:05:58*
%MOMM*%
%LPD*%
G01*
G04 APERTURE LIST*
%ADD10C,0.150000*%
G04 APERTURE END LIST*
D10*
G36*
X168190431Y-123508732D02*
G01*
X168205334Y-123509659D01*
X168219915Y-123511204D01*
X168234174Y-123513368D01*
X168248110Y-123516150D01*
X168261724Y-123519551D01*
X168275015Y-123523569D01*
X168287984Y-123528206D01*
X168300630Y-123533461D01*
X168312954Y-123539334D01*
X168324955Y-123545826D01*
X168336634Y-123552936D01*
X168347990Y-123560664D01*
X168359024Y-123569010D01*
X168369735Y-123577974D01*
X168380124Y-123587557D01*
X168390003Y-123597584D01*
X168399244Y-123607944D01*
X168407848Y-123618635D01*
X168415814Y-123629658D01*
X168423144Y-123641014D01*
X168429835Y-123652701D01*
X168435890Y-123664721D01*
X168441307Y-123677072D01*
X168446087Y-123689756D01*
X168450230Y-123702771D01*
X168453735Y-123716118D01*
X168456603Y-123729798D01*
X168458834Y-123743810D01*
X168460427Y-123758153D01*
X168461383Y-123772829D01*
X168461701Y-123787836D01*
X168461390Y-123803638D01*
X168460457Y-123819046D01*
X168458902Y-123834061D01*
X168456725Y-123848683D01*
X168453926Y-123862912D01*
X168450504Y-123876748D01*
X168446461Y-123890191D01*
X168441796Y-123903241D01*
X168436508Y-123915898D01*
X168430599Y-123928161D01*
X168424067Y-123940032D01*
X168416913Y-123951509D01*
X168409138Y-123962594D01*
X168400740Y-123973285D01*
X168391720Y-123983583D01*
X168382078Y-123993489D01*
X168371914Y-124002894D01*
X168361386Y-124011692D01*
X168350497Y-124019884D01*
X168339244Y-124027469D01*
X168327629Y-124034447D01*
X168315652Y-124040818D01*
X168303312Y-124046583D01*
X168290609Y-124051741D01*
X168277544Y-124056292D01*
X168264117Y-124060236D01*
X168250326Y-124063573D01*
X168236174Y-124066304D01*
X168221658Y-124068427D01*
X168206781Y-124069944D01*
X168191540Y-124070855D01*
X168175937Y-124071158D01*
X168161606Y-124070879D01*
X168147617Y-124070044D01*
X168133969Y-124068651D01*
X168120662Y-124066700D01*
X168107697Y-124064193D01*
X168095074Y-124061129D01*
X168082792Y-124057507D01*
X168070852Y-124053328D01*
X168059253Y-124048592D01*
X168047996Y-124043299D01*
X168037081Y-124037449D01*
X168026507Y-124031041D01*
X168016274Y-124024076D01*
X168006383Y-124016554D01*
X167996834Y-124008475D01*
X167987626Y-123999839D01*
X167981964Y-123993974D01*
X167973760Y-123984594D01*
X167965904Y-123974514D01*
X167958395Y-123963734D01*
X167951235Y-123952255D01*
X167944422Y-123940075D01*
X167937957Y-123927196D01*
X167933840Y-123918221D01*
X167929878Y-123908935D01*
X167926070Y-123899338D01*
X167922417Y-123889430D01*
X167918919Y-123879211D01*
X167915574Y-123868681D01*
X168056991Y-123836685D01*
X168057910Y-123840786D01*
X168060891Y-123852660D01*
X168064207Y-123863890D01*
X168067858Y-123874476D01*
X168071844Y-123884418D01*
X168076164Y-123893715D01*
X168082446Y-123905111D01*
X168089323Y-123915362D01*
X168096795Y-123924467D01*
X168104863Y-123932428D01*
X168113304Y-123939297D01*
X168122021Y-123945251D01*
X168131012Y-123950288D01*
X168140278Y-123954410D01*
X168149819Y-123957616D01*
X168159634Y-123959905D01*
X168169724Y-123961279D01*
X168180089Y-123961737D01*
X168188306Y-123961528D01*
X168200187Y-123960431D01*
X168211536Y-123958394D01*
X168222352Y-123955417D01*
X168232636Y-123951499D01*
X168242388Y-123946641D01*
X168251607Y-123940843D01*
X168260294Y-123934105D01*
X168268448Y-123926426D01*
X168276070Y-123917807D01*
X168283160Y-123908248D01*
X168288942Y-123898249D01*
X168293952Y-123886693D01*
X168297205Y-123877005D01*
X168300023Y-123866440D01*
X168302408Y-123855000D01*
X168304359Y-123842684D01*
X168305877Y-123829492D01*
X168306961Y-123815424D01*
X168307443Y-123805559D01*
X168307732Y-123795305D01*
X168307829Y-123784661D01*
X168307793Y-123779317D01*
X168307509Y-123768899D01*
X168306940Y-123758839D01*
X168305554Y-123744422D01*
X168303528Y-123730812D01*
X168300863Y-123718009D01*
X168297558Y-123706014D01*
X168293613Y-123694825D01*
X168289028Y-123684444D01*
X168283804Y-123674870D01*
X168277940Y-123666103D01*
X168271436Y-123658143D01*
X168266820Y-123653263D01*
X168259640Y-123646533D01*
X168249594Y-123638662D01*
X168239006Y-123632051D01*
X168227875Y-123626698D01*
X168216203Y-123622605D01*
X168203989Y-123619772D01*
X168191233Y-123618197D01*
X168181311Y-123617843D01*
X168169869Y-123618206D01*
X168158871Y-123619293D01*
X168148315Y-123621106D01*
X168138202Y-123623644D01*
X168128531Y-123626907D01*
X168119304Y-123630895D01*
X168110518Y-123635608D01*
X168102176Y-123641046D01*
X168094311Y-123647225D01*
X168087079Y-123654159D01*
X168080480Y-123661849D01*
X168074516Y-123670294D01*
X168069184Y-123679495D01*
X168064486Y-123689452D01*
X168060422Y-123700164D01*
X168056991Y-123711632D01*
X167921681Y-123694047D01*
X167924106Y-123683907D01*
X167926924Y-123674004D01*
X167930136Y-123664337D01*
X167933740Y-123654907D01*
X167937738Y-123645714D01*
X167942128Y-123636757D01*
X167946912Y-123628037D01*
X167952089Y-123619553D01*
X167957659Y-123611306D01*
X167963622Y-123603295D01*
X167969978Y-123595522D01*
X167976727Y-123587984D01*
X167983869Y-123580684D01*
X167991404Y-123573620D01*
X167999333Y-123566793D01*
X168007654Y-123560202D01*
X168016266Y-123553932D01*
X168025125Y-123548066D01*
X168034233Y-123542605D01*
X168043588Y-123537548D01*
X168053192Y-123532896D01*
X168063044Y-123528649D01*
X168073144Y-123524806D01*
X168083491Y-123521367D01*
X168094087Y-123518333D01*
X168104931Y-123515704D01*
X168116023Y-123513479D01*
X168127364Y-123511659D01*
X168138952Y-123510243D01*
X168150788Y-123509231D01*
X168162872Y-123508625D01*
X168175205Y-123508422D01*
X168190431Y-123508732D01*
G37*
G36*
X168196809Y-123274219D02*
G01*
X168214116Y-123275029D01*
X168231277Y-123276379D01*
X168248294Y-123278269D01*
X168265166Y-123280699D01*
X168281893Y-123283669D01*
X168298475Y-123287179D01*
X168314912Y-123291229D01*
X168331203Y-123295819D01*
X168347350Y-123300950D01*
X168363352Y-123306620D01*
X168379208Y-123312830D01*
X168394920Y-123319580D01*
X168410487Y-123326870D01*
X168425908Y-123334700D01*
X168441185Y-123343070D01*
X168456160Y-123351879D01*
X168470738Y-123361087D01*
X168484920Y-123370693D01*
X168498704Y-123380699D01*
X168512092Y-123391103D01*
X168525083Y-123401906D01*
X168537676Y-123413108D01*
X168549873Y-123424708D01*
X168561673Y-123436708D01*
X168573076Y-123449106D01*
X168584082Y-123461903D01*
X168594692Y-123475099D01*
X168604904Y-123488693D01*
X168614720Y-123502686D01*
X168624138Y-123517079D01*
X168633160Y-123531870D01*
X168641678Y-123546931D01*
X168649646Y-123562133D01*
X168657065Y-123577476D01*
X168663935Y-123592961D01*
X168670254Y-123608587D01*
X168676025Y-123624354D01*
X168681245Y-123640262D01*
X168685916Y-123656311D01*
X168690038Y-123672502D01*
X168693610Y-123688834D01*
X168696633Y-123705307D01*
X168699106Y-123721921D01*
X168701029Y-123738677D01*
X168702403Y-123755573D01*
X168703227Y-123772611D01*
X168703502Y-123789790D01*
X168703227Y-123807027D01*
X168702403Y-123824118D01*
X168701029Y-123841061D01*
X168699106Y-123857858D01*
X168696633Y-123874507D01*
X168693610Y-123891010D01*
X168690038Y-123907365D01*
X168685916Y-123923574D01*
X168681245Y-123939636D01*
X168676025Y-123955551D01*
X168670254Y-123971319D01*
X168663935Y-123986940D01*
X168657065Y-124002414D01*
X168649646Y-124017741D01*
X168641678Y-124032922D01*
X168633160Y-124047955D01*
X168624138Y-124062717D01*
X168614720Y-124077085D01*
X168604904Y-124091057D01*
X168594692Y-124104634D01*
X168584082Y-124117817D01*
X168573076Y-124130604D01*
X168561673Y-124142997D01*
X168549873Y-124154994D01*
X168537676Y-124166597D01*
X168525083Y-124177804D01*
X168512092Y-124188617D01*
X168498704Y-124199034D01*
X168484920Y-124209057D01*
X168470738Y-124218684D01*
X168456160Y-124227917D01*
X168441185Y-124236755D01*
X168425908Y-124245095D01*
X168410487Y-124252897D01*
X168394920Y-124260162D01*
X168379208Y-124266888D01*
X168363352Y-124273076D01*
X168347350Y-124278726D01*
X168331203Y-124283838D01*
X168314912Y-124288412D01*
X168298475Y-124292448D01*
X168281893Y-124295945D01*
X168265166Y-124298905D01*
X168248294Y-124301326D01*
X168231277Y-124303210D01*
X168214116Y-124304555D01*
X168196809Y-124305362D01*
X168179357Y-124305631D01*
X168161817Y-124305362D01*
X168144430Y-124304555D01*
X168127196Y-124303210D01*
X168110114Y-124301326D01*
X168093185Y-124298905D01*
X168076408Y-124295945D01*
X168059785Y-124292448D01*
X168043314Y-124288412D01*
X168026995Y-124283838D01*
X168010829Y-124278726D01*
X167994816Y-124273076D01*
X167978956Y-124266888D01*
X167963248Y-124260162D01*
X167947692Y-124252897D01*
X167932290Y-124245095D01*
X167917040Y-124236755D01*
X167902036Y-124227917D01*
X167887433Y-124218684D01*
X167873231Y-124209057D01*
X167859429Y-124199034D01*
X167846028Y-124188617D01*
X167833028Y-124177804D01*
X167820429Y-124166597D01*
X167808230Y-124154994D01*
X167796432Y-124142997D01*
X167785034Y-124130604D01*
X167774038Y-124117817D01*
X167763442Y-124104634D01*
X167753246Y-124091057D01*
X167743452Y-124077085D01*
X167734058Y-124062717D01*
X167725065Y-124047955D01*
X167716518Y-124032922D01*
X167708521Y-124017741D01*
X167701077Y-124002414D01*
X167694184Y-123986940D01*
X167687842Y-123971319D01*
X167682052Y-123955551D01*
X167676813Y-123939636D01*
X167672125Y-123923574D01*
X167667990Y-123907365D01*
X167664405Y-123891010D01*
X167661372Y-123874507D01*
X167658891Y-123857858D01*
X167656960Y-123841061D01*
X167655582Y-123824118D01*
X167654755Y-123807027D01*
X167654479Y-123789790D01*
X167756084Y-123789790D01*
X167756205Y-123800260D01*
X167756569Y-123810634D01*
X167757174Y-123820912D01*
X167758023Y-123831094D01*
X167759113Y-123841180D01*
X167760446Y-123851170D01*
X167762021Y-123861065D01*
X167763839Y-123870864D01*
X167765898Y-123880566D01*
X167768201Y-123890173D01*
X167770745Y-123899684D01*
X167773532Y-123909099D01*
X167776561Y-123918418D01*
X167779833Y-123927641D01*
X167783347Y-123936769D01*
X167787103Y-123945800D01*
X167791101Y-123954736D01*
X167795342Y-123963576D01*
X167799825Y-123972319D01*
X167804551Y-123980967D01*
X167809519Y-123989519D01*
X167814729Y-123997976D01*
X167820181Y-124006336D01*
X167825876Y-124014600D01*
X167831814Y-124022769D01*
X167837993Y-124030842D01*
X167844415Y-124038818D01*
X167851079Y-124046699D01*
X167857986Y-124054484D01*
X167865135Y-124062173D01*
X167872526Y-124069767D01*
X167880159Y-124077264D01*
X167887949Y-124084582D01*
X167895839Y-124091668D01*
X167903828Y-124098521D01*
X167911918Y-124105142D01*
X167920109Y-124111531D01*
X167928399Y-124117687D01*
X167936790Y-124123611D01*
X167945281Y-124129303D01*
X167953871Y-124134762D01*
X167962563Y-124139990D01*
X167971354Y-124144984D01*
X167980245Y-124149747D01*
X167989237Y-124154277D01*
X167998329Y-124158575D01*
X168007521Y-124162640D01*
X168016813Y-124166474D01*
X168026206Y-124170075D01*
X168035698Y-124173443D01*
X168045291Y-124176579D01*
X168054984Y-124179483D01*
X168064777Y-124182155D01*
X168074670Y-124184594D01*
X168084664Y-124186801D01*
X168094757Y-124188776D01*
X168104951Y-124190518D01*
X168115245Y-124192029D01*
X168125639Y-124193306D01*
X168136133Y-124194352D01*
X168146728Y-124195165D01*
X168157423Y-124195746D01*
X168168217Y-124196094D01*
X168179113Y-124196210D01*
X168190023Y-124196094D01*
X168200833Y-124195746D01*
X168211543Y-124195165D01*
X168222153Y-124194352D01*
X168232662Y-124193306D01*
X168243072Y-124192029D01*
X168253381Y-124190518D01*
X168263590Y-124188776D01*
X168273699Y-124186801D01*
X168283708Y-124184594D01*
X168293616Y-124182155D01*
X168303424Y-124179483D01*
X168313133Y-124176579D01*
X168322741Y-124173443D01*
X168332248Y-124170075D01*
X168341656Y-124166474D01*
X168350964Y-124162640D01*
X168360171Y-124158575D01*
X168369278Y-124154277D01*
X168378285Y-124149747D01*
X168387192Y-124144984D01*
X168395998Y-124139990D01*
X168404705Y-124134762D01*
X168413311Y-124129303D01*
X168421817Y-124123611D01*
X168430223Y-124117687D01*
X168438528Y-124111531D01*
X168446734Y-124105142D01*
X168454839Y-124098521D01*
X168462844Y-124091668D01*
X168470749Y-124084582D01*
X168478554Y-124077264D01*
X168486173Y-124069767D01*
X168493549Y-124062173D01*
X168500684Y-124054484D01*
X168507577Y-124046699D01*
X168514228Y-124038818D01*
X168520637Y-124030842D01*
X168526805Y-124022769D01*
X168532730Y-124014600D01*
X168538414Y-124006336D01*
X168543856Y-123997976D01*
X168549056Y-123989519D01*
X168554014Y-123980967D01*
X168558730Y-123972319D01*
X168563204Y-123963576D01*
X168567437Y-123954736D01*
X168571428Y-123945800D01*
X168575176Y-123936769D01*
X168578683Y-123927641D01*
X168581948Y-123918418D01*
X168584972Y-123909099D01*
X168587753Y-123899684D01*
X168590292Y-123890173D01*
X168592590Y-123880566D01*
X168594646Y-123870864D01*
X168596460Y-123861065D01*
X168598032Y-123851170D01*
X168599362Y-123841180D01*
X168600451Y-123831094D01*
X168601297Y-123820912D01*
X168601902Y-123810634D01*
X168602264Y-123800260D01*
X168602385Y-123789790D01*
X168602264Y-123779321D01*
X168601902Y-123768947D01*
X168601297Y-123758671D01*
X168600451Y-123748490D01*
X168599362Y-123738406D01*
X168598032Y-123728418D01*
X168596460Y-123718527D01*
X168594646Y-123708732D01*
X168592590Y-123699033D01*
X168590292Y-123689431D01*
X168587753Y-123679925D01*
X168584972Y-123670516D01*
X168581948Y-123661202D01*
X168578683Y-123651986D01*
X168575176Y-123642865D01*
X168571428Y-123633841D01*
X168567437Y-123624913D01*
X168563204Y-123616082D01*
X168558730Y-123607347D01*
X168554014Y-123598708D01*
X168549056Y-123590166D01*
X168543856Y-123581720D01*
X168538414Y-123573370D01*
X168532730Y-123565117D01*
X168526805Y-123556960D01*
X168520637Y-123548900D01*
X168514228Y-123540936D01*
X168507577Y-123533068D01*
X168500684Y-123525297D01*
X168493549Y-123517622D01*
X168486173Y-123510043D01*
X168478554Y-123502561D01*
X168470749Y-123495228D01*
X168462844Y-123488127D01*
X168454839Y-123481260D01*
X168446734Y-123474625D01*
X168438528Y-123468223D01*
X168430223Y-123462054D01*
X168421817Y-123456118D01*
X168413311Y-123450415D01*
X168404705Y-123444944D01*
X168395998Y-123439706D01*
X168387192Y-123434701D01*
X168378285Y-123429929D01*
X168369278Y-123425389D01*
X168360171Y-123421083D01*
X168350964Y-123417009D01*
X168341656Y-123413168D01*
X168332248Y-123409559D01*
X168322741Y-123406184D01*
X168313133Y-123403041D01*
X168303424Y-123400131D01*
X168293616Y-123397454D01*
X168283708Y-123395010D01*
X168273699Y-123392798D01*
X168263590Y-123390819D01*
X168253381Y-123389074D01*
X168243072Y-123387560D01*
X168232662Y-123386280D01*
X168222153Y-123385232D01*
X168211543Y-123384418D01*
X168200833Y-123383836D01*
X168190023Y-123383486D01*
X168179113Y-123383370D01*
X168168217Y-123383486D01*
X168157423Y-123383836D01*
X168146728Y-123384418D01*
X168136133Y-123385232D01*
X168125639Y-123386280D01*
X168115245Y-123387560D01*
X168104951Y-123389074D01*
X168094757Y-123390819D01*
X168084664Y-123392798D01*
X168074670Y-123395010D01*
X168064777Y-123397454D01*
X168054984Y-123400131D01*
X168045291Y-123403041D01*
X168035698Y-123406184D01*
X168026206Y-123409559D01*
X168016813Y-123413168D01*
X168007521Y-123417009D01*
X167998329Y-123421083D01*
X167989237Y-123425389D01*
X167980245Y-123429929D01*
X167971354Y-123434701D01*
X167962563Y-123439706D01*
X167953871Y-123444944D01*
X167945281Y-123450415D01*
X167936790Y-123456118D01*
X167928399Y-123462054D01*
X167920109Y-123468223D01*
X167911918Y-123474625D01*
X167903828Y-123481260D01*
X167895839Y-123488127D01*
X167887949Y-123495228D01*
X167880159Y-123502561D01*
X167872526Y-123510043D01*
X167865135Y-123517622D01*
X167857986Y-123525297D01*
X167851079Y-123533068D01*
X167844415Y-123540936D01*
X167837993Y-123548900D01*
X167831814Y-123556960D01*
X167825876Y-123565117D01*
X167820181Y-123573370D01*
X167814729Y-123581720D01*
X167809519Y-123590166D01*
X167804551Y-123598708D01*
X167799825Y-123607347D01*
X167795342Y-123616082D01*
X167791101Y-123624913D01*
X167787103Y-123633841D01*
X167783347Y-123642865D01*
X167779833Y-123651986D01*
X167776561Y-123661202D01*
X167773532Y-123670516D01*
X167770745Y-123679925D01*
X167768201Y-123689431D01*
X167765898Y-123699033D01*
X167763839Y-123708732D01*
X167762021Y-123718527D01*
X167760446Y-123728418D01*
X167759113Y-123738406D01*
X167758023Y-123748490D01*
X167757174Y-123758671D01*
X167756569Y-123768947D01*
X167756205Y-123779321D01*
X167756084Y-123789790D01*
X167654479Y-123789790D01*
X167654755Y-123772611D01*
X167655582Y-123755573D01*
X167656960Y-123738677D01*
X167658891Y-123721921D01*
X167661372Y-123705307D01*
X167664405Y-123688834D01*
X167667990Y-123672502D01*
X167672125Y-123656311D01*
X167676813Y-123640262D01*
X167682052Y-123624354D01*
X167687842Y-123608587D01*
X167694184Y-123592961D01*
X167701077Y-123577476D01*
X167708521Y-123562133D01*
X167716518Y-123546931D01*
X167725065Y-123531870D01*
X167734058Y-123517079D01*
X167743452Y-123502686D01*
X167753246Y-123488693D01*
X167763442Y-123475099D01*
X167774038Y-123461903D01*
X167785034Y-123449106D01*
X167796432Y-123436708D01*
X167808230Y-123424708D01*
X167820429Y-123413108D01*
X167833028Y-123401906D01*
X167846028Y-123391103D01*
X167859429Y-123380699D01*
X167873231Y-123370693D01*
X167887433Y-123361087D01*
X167902036Y-123351879D01*
X167917040Y-123343070D01*
X167932290Y-123334700D01*
X167947692Y-123326870D01*
X167963248Y-123319580D01*
X167978956Y-123312830D01*
X167994816Y-123306620D01*
X168010829Y-123300950D01*
X168026995Y-123295819D01*
X168043314Y-123291229D01*
X168059785Y-123287179D01*
X168076408Y-123283669D01*
X168093185Y-123280699D01*
X168110114Y-123278269D01*
X168127196Y-123276379D01*
X168144430Y-123275029D01*
X168161817Y-123274219D01*
X168179357Y-123273949D01*
X168196809Y-123274219D01*
G37*
G36*
X166280124Y-124290000D02*
G01*
X167119587Y-124290000D01*
X167117557Y-124274335D01*
X167115069Y-124258786D01*
X167112122Y-124243354D01*
X167108718Y-124228038D01*
X167104856Y-124212839D01*
X167100536Y-124197756D01*
X167095758Y-124182789D01*
X167090522Y-124167939D01*
X167084828Y-124153205D01*
X167078676Y-124138588D01*
X167072067Y-124124087D01*
X167064999Y-124109702D01*
X167057473Y-124095434D01*
X167049489Y-124081283D01*
X167041048Y-124067247D01*
X167032148Y-124053328D01*
X167022489Y-124039299D01*
X167011830Y-124024992D01*
X167000171Y-124010409D01*
X166987513Y-123995549D01*
X166980808Y-123988016D01*
X166973854Y-123980413D01*
X166966650Y-123972741D01*
X166959196Y-123965000D01*
X166951492Y-123957190D01*
X166943538Y-123949310D01*
X166935333Y-123941362D01*
X166926879Y-123933344D01*
X166918175Y-123925257D01*
X166909221Y-123917101D01*
X166900018Y-123908875D01*
X166890564Y-123900581D01*
X166880860Y-123892217D01*
X166870906Y-123883785D01*
X166860702Y-123875283D01*
X166850248Y-123866711D01*
X166839545Y-123858071D01*
X166828591Y-123849362D01*
X166817387Y-123840583D01*
X166805933Y-123831735D01*
X166794230Y-123822818D01*
X166782276Y-123813832D01*
X166770073Y-123804776D01*
X166757619Y-123795652D01*
X166742579Y-123784587D01*
X166728234Y-123773861D01*
X166714583Y-123763475D01*
X166701626Y-123753428D01*
X166689365Y-123743722D01*
X166677798Y-123734355D01*
X166666925Y-123725327D01*
X166656747Y-123716639D01*
X166647263Y-123708291D01*
X166638474Y-123700283D01*
X166630380Y-123692614D01*
X166622980Y-123685285D01*
X166613183Y-123674928D01*
X166604948Y-123665335D01*
X166600327Y-123659364D01*
X166594172Y-123650660D01*
X166588623Y-123642042D01*
X166583679Y-123633510D01*
X166578029Y-123622267D01*
X166573456Y-123611177D01*
X166569958Y-123600240D01*
X166567536Y-123589455D01*
X166566191Y-123578823D01*
X166565889Y-123570949D01*
X166566419Y-123559801D01*
X166568010Y-123549074D01*
X166570663Y-123538766D01*
X166574376Y-123528878D01*
X166579150Y-123519410D01*
X166584985Y-123510361D01*
X166591881Y-123501732D01*
X166599838Y-123493524D01*
X166608600Y-123486025D01*
X166617912Y-123479525D01*
X166627774Y-123474026D01*
X166638184Y-123469527D01*
X166649145Y-123466027D01*
X166660655Y-123463528D01*
X166672714Y-123462028D01*
X166685323Y-123461528D01*
X166695224Y-123461833D01*
X166707885Y-123463187D01*
X166719927Y-123465626D01*
X166731351Y-123469148D01*
X166742157Y-123473755D01*
X166752345Y-123479445D01*
X166761914Y-123486219D01*
X166770865Y-123494076D01*
X166773006Y-123496210D01*
X166781147Y-123505644D01*
X166786796Y-123513801D01*
X166792055Y-123522886D01*
X166796922Y-123532898D01*
X166801400Y-123543838D01*
X166805486Y-123555704D01*
X166809182Y-123568498D01*
X166812487Y-123582220D01*
X166814474Y-123591883D01*
X166816286Y-123601958D01*
X166817925Y-123612445D01*
X166818680Y-123617843D01*
X167099071Y-123594640D01*
X167096888Y-123580097D01*
X167094491Y-123565961D01*
X167091881Y-123552231D01*
X167089057Y-123538907D01*
X167086019Y-123525990D01*
X167082767Y-123513479D01*
X167079302Y-123501375D01*
X167075623Y-123489677D01*
X167071731Y-123478385D01*
X167067624Y-123467500D01*
X167063304Y-123457022D01*
X167058771Y-123446950D01*
X167054023Y-123437284D01*
X167049062Y-123428025D01*
X167043887Y-123419172D01*
X167038498Y-123410725D01*
X167032863Y-123402573D01*
X167026947Y-123394662D01*
X167020750Y-123386995D01*
X167014273Y-123379569D01*
X167007515Y-123372386D01*
X167000477Y-123365445D01*
X166993158Y-123358746D01*
X166985559Y-123352290D01*
X166977679Y-123346076D01*
X166969519Y-123340105D01*
X166961078Y-123334376D01*
X166952357Y-123328889D01*
X166943355Y-123323644D01*
X166934073Y-123318642D01*
X166924510Y-123313882D01*
X166914667Y-123309364D01*
X166904413Y-123305076D01*
X166893678Y-123301064D01*
X166882462Y-123297329D01*
X166870765Y-123293870D01*
X166858587Y-123290688D01*
X166845928Y-123287783D01*
X166832789Y-123285155D01*
X166819168Y-123282803D01*
X166805067Y-123280728D01*
X166790485Y-123278930D01*
X166775422Y-123277408D01*
X166759878Y-123276163D01*
X166743854Y-123275194D01*
X166727348Y-123274503D01*
X166710362Y-123274088D01*
X166692895Y-123273949D01*
X166674710Y-123274079D01*
X166657037Y-123274468D01*
X166639875Y-123275117D01*
X166623225Y-123276025D01*
X166607085Y-123277193D01*
X166591458Y-123278620D01*
X166576341Y-123280307D01*
X166561736Y-123282254D01*
X166547643Y-123284459D01*
X166534061Y-123286925D01*
X166520990Y-123289649D01*
X166508430Y-123292634D01*
X166496382Y-123295878D01*
X166484846Y-123299381D01*
X166473820Y-123303144D01*
X166463307Y-123307166D01*
X166453156Y-123311426D01*
X166443282Y-123315963D01*
X166433685Y-123320776D01*
X166424365Y-123325866D01*
X166415321Y-123331233D01*
X166406554Y-123336876D01*
X166398064Y-123342796D01*
X166389850Y-123348993D01*
X166381914Y-123355466D01*
X166374253Y-123362216D01*
X166366870Y-123369243D01*
X166359763Y-123376547D01*
X166352933Y-123384127D01*
X166346379Y-123391983D01*
X166340102Y-123400117D01*
X166334102Y-123408527D01*
X166328394Y-123417140D01*
X166323054Y-123425884D01*
X166318082Y-123434756D01*
X166313479Y-123443759D01*
X166309244Y-123452891D01*
X166305377Y-123462154D01*
X166301878Y-123471546D01*
X166298748Y-123481067D01*
X166295986Y-123490719D01*
X166293592Y-123500500D01*
X166291567Y-123510411D01*
X166289909Y-123520451D01*
X166288620Y-123530622D01*
X166287700Y-123540922D01*
X166287147Y-123551352D01*
X166286963Y-123561912D01*
X166287174Y-123573147D01*
X166287807Y-123584321D01*
X166288861Y-123595434D01*
X166290337Y-123606486D01*
X166292234Y-123617477D01*
X166294554Y-123628407D01*
X166297295Y-123639275D01*
X166300458Y-123650083D01*
X166304042Y-123660830D01*
X166308048Y-123671516D01*
X166312476Y-123682140D01*
X166317326Y-123692704D01*
X166322597Y-123703206D01*
X166328290Y-123713647D01*
X166334404Y-123724028D01*
X166340941Y-123734347D01*
X166348032Y-123744699D01*
X166355813Y-123755176D01*
X166364282Y-123765780D01*
X166373440Y-123776509D01*
X166383287Y-123787365D01*
X166393823Y-123798346D01*
X166405048Y-123809454D01*
X166416961Y-123820687D01*
X166429564Y-123832046D01*
X166442855Y-123843531D01*
X166456835Y-123855142D01*
X166471504Y-123866879D01*
X166486862Y-123878742D01*
X166494799Y-123884721D01*
X166502908Y-123890731D01*
X166511190Y-123896773D01*
X166519644Y-123902846D01*
X166528270Y-123908951D01*
X166537068Y-123915087D01*
X166547413Y-123922127D01*
X166557321Y-123928898D01*
X166566792Y-123935400D01*
X166575826Y-123941633D01*
X166584423Y-123947597D01*
X166592583Y-123953292D01*
X166604004Y-123961329D01*
X166614442Y-123968762D01*
X166623897Y-123975589D01*
X166632368Y-123981811D01*
X166642134Y-123989165D01*
X166650152Y-123995443D01*
X166659257Y-124002963D01*
X166666901Y-124009478D01*
X166674865Y-124016435D01*
X166683150Y-124023834D01*
X166691756Y-124031677D01*
X166700682Y-124039962D01*
X166709929Y-124048690D01*
X166717075Y-124055526D01*
X166280124Y-124055526D01*
X166280124Y-124290000D01*
G37*
G36*
X165760789Y-123274060D02*
G01*
X165773693Y-123274394D01*
X165786385Y-123274950D01*
X165798867Y-123275728D01*
X165811138Y-123276728D01*
X165823198Y-123277951D01*
X165835047Y-123279396D01*
X165846685Y-123281063D01*
X165858112Y-123282952D01*
X165869329Y-123285064D01*
X165880335Y-123287398D01*
X165891129Y-123289955D01*
X165901714Y-123292734D01*
X165912087Y-123295735D01*
X165922249Y-123298958D01*
X165932200Y-123302404D01*
X165941941Y-123306071D01*
X165951471Y-123309962D01*
X165960790Y-123314074D01*
X165969898Y-123318409D01*
X165978795Y-123322966D01*
X165987481Y-123327746D01*
X165995957Y-123332747D01*
X166004222Y-123337971D01*
X166020118Y-123349086D01*
X166035172Y-123361091D01*
X166049382Y-123373984D01*
X166062748Y-123387766D01*
X166069105Y-123395031D01*
X166075259Y-123402630D01*
X166081212Y-123410562D01*
X166086963Y-123418827D01*
X166092512Y-123427426D01*
X166097859Y-123436358D01*
X166103005Y-123445624D01*
X166107948Y-123455223D01*
X166112690Y-123465156D01*
X166117231Y-123475422D01*
X166121569Y-123486021D01*
X166125706Y-123496954D01*
X166129641Y-123508221D01*
X166133374Y-123519821D01*
X166136905Y-123531754D01*
X166140234Y-123544021D01*
X166143362Y-123556621D01*
X166146288Y-123569555D01*
X166149012Y-123582822D01*
X166151534Y-123596422D01*
X166153855Y-123610356D01*
X166155974Y-123624624D01*
X166157891Y-123639225D01*
X166159606Y-123654159D01*
X166161119Y-123669427D01*
X166162431Y-123685028D01*
X166163541Y-123700963D01*
X166164449Y-123717231D01*
X166165155Y-123733833D01*
X166165659Y-123750768D01*
X166165962Y-123768036D01*
X166166063Y-123785638D01*
X166165984Y-123800031D01*
X166165746Y-123814268D01*
X166165350Y-123828348D01*
X166164796Y-123842272D01*
X166164083Y-123856039D01*
X166163212Y-123869650D01*
X166162183Y-123883104D01*
X166160995Y-123896402D01*
X166159649Y-123909544D01*
X166158144Y-123922529D01*
X166156481Y-123935357D01*
X166154660Y-123948029D01*
X166152680Y-123960545D01*
X166150542Y-123972904D01*
X166148246Y-123985106D01*
X166145791Y-123997152D01*
X166144508Y-124003082D01*
X166141848Y-124014704D01*
X166139062Y-124026012D01*
X166136150Y-124037005D01*
X166133113Y-124047683D01*
X166129949Y-124058046D01*
X166126659Y-124068094D01*
X166123244Y-124077828D01*
X166119702Y-124087246D01*
X166114154Y-124100784D01*
X166108322Y-124113613D01*
X166102207Y-124125734D01*
X166095808Y-124137146D01*
X166089126Y-124147850D01*
X166082757Y-124157383D01*
X166076166Y-124166626D01*
X166069354Y-124175579D01*
X166062321Y-124184242D01*
X166055066Y-124192615D01*
X166047590Y-124200698D01*
X166039892Y-124208491D01*
X166031974Y-124215994D01*
X166023833Y-124223207D01*
X166015472Y-124230129D01*
X166006889Y-124236762D01*
X165998085Y-124243105D01*
X165989059Y-124249158D01*
X165979813Y-124254920D01*
X165970344Y-124260393D01*
X165960655Y-124265575D01*
X165950665Y-124270426D01*
X165940295Y-124274963D01*
X165929545Y-124279188D01*
X165918416Y-124283100D01*
X165906907Y-124286698D01*
X165895018Y-124289984D01*
X165882750Y-124292957D01*
X165870102Y-124295617D01*
X165857074Y-124297964D01*
X165843666Y-124299998D01*
X165829879Y-124301719D01*
X165815712Y-124303128D01*
X165801165Y-124304223D01*
X165786239Y-124305005D01*
X165770932Y-124305475D01*
X165755247Y-124305631D01*
X165741211Y-124305508D01*
X165727437Y-124305140D01*
X165713925Y-124304526D01*
X165700673Y-124303666D01*
X165687684Y-124302560D01*
X165674955Y-124301209D01*
X165662489Y-124299612D01*
X165650283Y-124297769D01*
X165638339Y-124295681D01*
X165626656Y-124293347D01*
X165615235Y-124290768D01*
X165604075Y-124287943D01*
X165593177Y-124284872D01*
X165582540Y-124281555D01*
X165572165Y-124277993D01*
X165562050Y-124274185D01*
X165552198Y-124270131D01*
X165542606Y-124265832D01*
X165533277Y-124261287D01*
X165524208Y-124256496D01*
X165515401Y-124251460D01*
X165506855Y-124246178D01*
X165498571Y-124240650D01*
X165490548Y-124234877D01*
X165482787Y-124228858D01*
X165475287Y-124222593D01*
X165461071Y-124209327D01*
X165447901Y-124195078D01*
X165435777Y-124179846D01*
X165430067Y-124171827D01*
X165424538Y-124163524D01*
X165419190Y-124154936D01*
X165414024Y-124146064D01*
X165409039Y-124136908D01*
X165404235Y-124127467D01*
X165399613Y-124117742D01*
X165395171Y-124107733D01*
X165390912Y-124097440D01*
X165386833Y-124086862D01*
X165382935Y-124076000D01*
X165379219Y-124064853D01*
X165375685Y-124053423D01*
X165372331Y-124041708D01*
X165369159Y-124029708D01*
X165366168Y-124017424D01*
X165363358Y-124004856D01*
X165360729Y-123992004D01*
X165358282Y-123978868D01*
X165356016Y-123965447D01*
X165353932Y-123951741D01*
X165352028Y-123937752D01*
X165350306Y-123923478D01*
X165348765Y-123908920D01*
X165347406Y-123894077D01*
X165346228Y-123878950D01*
X165345231Y-123863539D01*
X165344415Y-123847844D01*
X165343780Y-123831864D01*
X165343327Y-123815600D01*
X165343055Y-123799051D01*
X165343039Y-123796140D01*
X165621157Y-123796140D01*
X165621215Y-123812775D01*
X165621390Y-123828850D01*
X165621681Y-123844366D01*
X165622088Y-123859323D01*
X165622612Y-123873721D01*
X165623252Y-123887560D01*
X165624009Y-123900840D01*
X165624882Y-123913560D01*
X165625871Y-123925722D01*
X165626977Y-123937324D01*
X165628199Y-123948368D01*
X165629538Y-123958852D01*
X165630993Y-123968777D01*
X165633393Y-123982617D01*
X165636056Y-123995198D01*
X165636988Y-123999149D01*
X165639979Y-124010601D01*
X165643262Y-124021452D01*
X165646837Y-124031701D01*
X165650704Y-124041350D01*
X165654863Y-124050397D01*
X165660862Y-124061526D01*
X165667380Y-124071585D01*
X165674417Y-124080577D01*
X165681974Y-124088499D01*
X165689965Y-124095426D01*
X165698307Y-124101429D01*
X165707001Y-124106508D01*
X165716046Y-124110664D01*
X165725441Y-124113897D01*
X165735188Y-124116205D01*
X165745286Y-124117591D01*
X165755735Y-124118053D01*
X165763705Y-124117781D01*
X165775210Y-124116353D01*
X165786174Y-124113702D01*
X165796597Y-124109827D01*
X165806478Y-124104729D01*
X165815819Y-124098407D01*
X165824619Y-124090861D01*
X165832878Y-124082092D01*
X165840596Y-124072100D01*
X165847773Y-124060883D01*
X165854409Y-124048443D01*
X165856498Y-124043975D01*
X165860476Y-124034333D01*
X165864190Y-124023751D01*
X165867638Y-124012227D01*
X165870820Y-123999763D01*
X165873738Y-123986359D01*
X165876390Y-123972013D01*
X165878777Y-123956727D01*
X165880899Y-123940500D01*
X165882756Y-123923333D01*
X165884347Y-123905224D01*
X165885673Y-123886175D01*
X165886237Y-123876298D01*
X165886734Y-123866185D01*
X165887165Y-123855838D01*
X165887530Y-123845255D01*
X165887828Y-123834437D01*
X165888060Y-123823384D01*
X165888226Y-123812095D01*
X165888326Y-123800572D01*
X165888359Y-123788813D01*
X165888329Y-123777175D01*
X165888239Y-123765768D01*
X165888088Y-123754592D01*
X165887878Y-123743647D01*
X165887608Y-123732934D01*
X165887277Y-123722453D01*
X165886886Y-123712202D01*
X165886435Y-123702183D01*
X165885354Y-123682839D01*
X165884031Y-123664421D01*
X165882468Y-123646928D01*
X165880665Y-123630361D01*
X165878622Y-123614719D01*
X165876338Y-123600002D01*
X165873813Y-123586211D01*
X165871048Y-123573345D01*
X165868043Y-123561405D01*
X165864797Y-123550390D01*
X165861311Y-123540301D01*
X165857584Y-123531137D01*
X165853557Y-123522708D01*
X165846955Y-123511084D01*
X165839678Y-123500683D01*
X165831728Y-123491506D01*
X165823103Y-123483553D01*
X165813804Y-123476823D01*
X165803832Y-123471317D01*
X165793185Y-123467034D01*
X165781864Y-123463975D01*
X165769869Y-123462140D01*
X165757200Y-123461528D01*
X165748816Y-123461795D01*
X165736740Y-123463197D01*
X165725266Y-123465802D01*
X165714392Y-123469609D01*
X165704120Y-123474618D01*
X165694448Y-123480829D01*
X165685378Y-123488242D01*
X165676908Y-123496857D01*
X165669040Y-123506675D01*
X165661773Y-123517694D01*
X165655107Y-123529916D01*
X165650996Y-123538941D01*
X165647150Y-123548982D01*
X165643569Y-123560038D01*
X165640254Y-123572109D01*
X165637204Y-123585195D01*
X165634419Y-123599296D01*
X165631899Y-123614412D01*
X165629645Y-123630544D01*
X165627655Y-123647690D01*
X165625931Y-123665852D01*
X165624473Y-123685029D01*
X165623843Y-123694998D01*
X165623279Y-123705221D01*
X165622782Y-123715698D01*
X165622351Y-123726428D01*
X165621986Y-123737412D01*
X165621688Y-123748650D01*
X165621456Y-123760142D01*
X165621290Y-123771888D01*
X165621190Y-123783887D01*
X165621157Y-123796140D01*
X165343039Y-123796140D01*
X165342965Y-123782219D01*
X165343074Y-123767113D01*
X165343403Y-123752081D01*
X165343952Y-123737124D01*
X165344720Y-123722242D01*
X165345708Y-123707434D01*
X165346914Y-123692700D01*
X165348341Y-123678040D01*
X165349987Y-123663456D01*
X165351852Y-123648945D01*
X165353936Y-123634509D01*
X165356241Y-123620147D01*
X165358764Y-123605860D01*
X165361507Y-123591647D01*
X165364469Y-123577509D01*
X165367651Y-123563445D01*
X165371053Y-123549455D01*
X165373838Y-123538637D01*
X165376791Y-123528072D01*
X165379912Y-123517760D01*
X165383200Y-123507701D01*
X165386655Y-123497896D01*
X165390278Y-123488344D01*
X165394068Y-123479045D01*
X165398026Y-123470000D01*
X165403564Y-123458334D01*
X165409399Y-123447117D01*
X165413995Y-123438911D01*
X165420605Y-123428082D01*
X165427765Y-123417383D01*
X165433495Y-123409444D01*
X165439534Y-123401578D01*
X165445882Y-123393785D01*
X165452540Y-123386065D01*
X165459507Y-123378417D01*
X165466782Y-123370843D01*
X165474367Y-123363342D01*
X165479592Y-123358425D01*
X165487786Y-123351271D01*
X165496410Y-123344383D01*
X165505463Y-123337761D01*
X165514946Y-123331405D01*
X165524858Y-123325316D01*
X165535199Y-123319493D01*
X165545970Y-123313936D01*
X165557169Y-123308645D01*
X165568799Y-123303620D01*
X165580857Y-123298862D01*
X165584968Y-123297329D01*
X165597729Y-123293023D01*
X165611129Y-123289155D01*
X165625169Y-123285724D01*
X165634884Y-123283681D01*
X165644884Y-123281832D01*
X165655168Y-123280177D01*
X165665736Y-123278718D01*
X165676589Y-123277453D01*
X165687726Y-123276382D01*
X165699147Y-123275506D01*
X165710853Y-123274825D01*
X165722842Y-123274339D01*
X165735117Y-123274047D01*
X165747675Y-123273949D01*
X165760789Y-123274060D01*
G37*
G36*
X164414109Y-124290000D02*
G01*
X165253572Y-124290000D01*
X165251541Y-124274335D01*
X165249053Y-124258786D01*
X165246107Y-124243354D01*
X165242703Y-124228038D01*
X165238841Y-124212839D01*
X165234521Y-124197756D01*
X165229743Y-124182789D01*
X165224507Y-124167939D01*
X165218813Y-124153205D01*
X165212661Y-124138588D01*
X165206051Y-124124087D01*
X165198983Y-124109702D01*
X165191458Y-124095434D01*
X165183474Y-124081283D01*
X165175032Y-124067247D01*
X165166133Y-124053328D01*
X165156474Y-124039299D01*
X165145815Y-124024992D01*
X165134156Y-124010409D01*
X165121497Y-123995549D01*
X165114793Y-123988016D01*
X165107839Y-123980413D01*
X165100635Y-123972741D01*
X165093180Y-123965000D01*
X165085476Y-123957190D01*
X165077522Y-123949310D01*
X165069318Y-123941362D01*
X165060864Y-123933344D01*
X165052160Y-123925257D01*
X165043206Y-123917101D01*
X165034002Y-123908875D01*
X165024548Y-123900581D01*
X165014844Y-123892217D01*
X165004891Y-123883785D01*
X164994687Y-123875283D01*
X164984233Y-123866711D01*
X164973529Y-123858071D01*
X164962575Y-123849362D01*
X164951372Y-123840583D01*
X164939918Y-123831735D01*
X164928214Y-123822818D01*
X164916261Y-123813832D01*
X164904057Y-123804776D01*
X164891604Y-123795652D01*
X164876564Y-123784587D01*
X164862218Y-123773861D01*
X164848567Y-123763475D01*
X164835611Y-123753428D01*
X164823349Y-123743722D01*
X164811782Y-123734355D01*
X164800910Y-123725327D01*
X164790732Y-123716639D01*
X164781248Y-123708291D01*
X164772459Y-123700283D01*
X164764365Y-123692614D01*
X164756965Y-123685285D01*
X164747168Y-123674928D01*
X164738933Y-123665335D01*
X164734311Y-123659364D01*
X164728157Y-123650660D01*
X164722608Y-123642042D01*
X164717664Y-123633510D01*
X164712014Y-123622267D01*
X164707440Y-123611177D01*
X164703943Y-123600240D01*
X164701521Y-123589455D01*
X164700176Y-123578823D01*
X164699873Y-123570949D01*
X164700404Y-123559801D01*
X164701995Y-123549074D01*
X164704647Y-123538766D01*
X164708361Y-123528878D01*
X164713135Y-123519410D01*
X164718970Y-123510361D01*
X164725866Y-123501732D01*
X164733823Y-123493524D01*
X164742585Y-123486025D01*
X164751897Y-123479525D01*
X164761758Y-123474026D01*
X164772169Y-123469527D01*
X164783129Y-123466027D01*
X164794639Y-123463528D01*
X164806699Y-123462028D01*
X164819308Y-123461528D01*
X164829209Y-123461833D01*
X164841870Y-123463187D01*
X164853912Y-123465626D01*
X164865336Y-123469148D01*
X164876142Y-123473755D01*
X164886329Y-123479445D01*
X164895899Y-123486219D01*
X164904850Y-123494076D01*
X164906991Y-123496210D01*
X164915131Y-123505644D01*
X164920781Y-123513801D01*
X164926039Y-123522886D01*
X164930907Y-123532898D01*
X164935384Y-123543838D01*
X164939471Y-123555704D01*
X164943167Y-123568498D01*
X164946472Y-123582220D01*
X164948458Y-123591883D01*
X164950271Y-123601958D01*
X164951910Y-123612445D01*
X164952665Y-123617843D01*
X165233055Y-123594640D01*
X165230872Y-123580097D01*
X165228476Y-123565961D01*
X165225865Y-123552231D01*
X165223041Y-123538907D01*
X165220004Y-123525990D01*
X165216752Y-123513479D01*
X165213287Y-123501375D01*
X165209608Y-123489677D01*
X165205715Y-123478385D01*
X165201609Y-123467500D01*
X165197289Y-123457022D01*
X165192755Y-123446950D01*
X165188008Y-123437284D01*
X165183047Y-123428025D01*
X165177872Y-123419172D01*
X165172483Y-123410725D01*
X165166847Y-123402573D01*
X165160931Y-123394662D01*
X165154734Y-123386995D01*
X165148257Y-123379569D01*
X165141500Y-123372386D01*
X165134461Y-123365445D01*
X165127143Y-123358746D01*
X165119543Y-123352290D01*
X165111664Y-123346076D01*
X165103504Y-123340105D01*
X165095063Y-123334376D01*
X165086342Y-123328889D01*
X165077340Y-123323644D01*
X165068058Y-123318642D01*
X165058495Y-123313882D01*
X165048652Y-123309364D01*
X165038398Y-123305076D01*
X165027662Y-123301064D01*
X165016446Y-123297329D01*
X165004749Y-123293870D01*
X164992572Y-123290688D01*
X164979913Y-123287783D01*
X164966773Y-123285155D01*
X164953153Y-123282803D01*
X164939052Y-123280728D01*
X164924470Y-123278930D01*
X164909407Y-123277408D01*
X164893863Y-123276163D01*
X164877838Y-123275194D01*
X164861333Y-123274503D01*
X164844347Y-123274088D01*
X164826879Y-123273949D01*
X164808695Y-123274079D01*
X164791022Y-123274468D01*
X164773860Y-123275117D01*
X164757209Y-123276025D01*
X164741070Y-123277193D01*
X164725442Y-123278620D01*
X164710326Y-123280307D01*
X164695721Y-123282254D01*
X164681627Y-123284459D01*
X164668045Y-123286925D01*
X164654974Y-123289649D01*
X164642415Y-123292634D01*
X164630367Y-123295878D01*
X164618830Y-123299381D01*
X164607805Y-123303144D01*
X164597291Y-123307166D01*
X164587141Y-123311426D01*
X164577267Y-123315963D01*
X164567670Y-123320776D01*
X164558350Y-123325866D01*
X164549306Y-123331233D01*
X164540539Y-123336876D01*
X164532049Y-123342796D01*
X164523835Y-123348993D01*
X164515898Y-123355466D01*
X164508238Y-123362216D01*
X164500854Y-123369243D01*
X164493747Y-123376547D01*
X164486917Y-123384127D01*
X164480364Y-123391983D01*
X164474087Y-123400117D01*
X164468087Y-123408527D01*
X164462378Y-123417140D01*
X164457039Y-123425884D01*
X164452067Y-123434756D01*
X164447463Y-123443759D01*
X164443228Y-123452891D01*
X164439361Y-123462154D01*
X164435863Y-123471546D01*
X164432733Y-123481067D01*
X164429971Y-123490719D01*
X164427577Y-123500500D01*
X164425551Y-123510411D01*
X164423894Y-123520451D01*
X164422605Y-123530622D01*
X164421684Y-123540922D01*
X164421132Y-123551352D01*
X164420948Y-123561912D01*
X164421159Y-123573147D01*
X164421791Y-123584321D01*
X164422845Y-123595434D01*
X164424321Y-123606486D01*
X164426219Y-123617477D01*
X164428538Y-123628407D01*
X164431279Y-123639275D01*
X164434442Y-123650083D01*
X164438027Y-123660830D01*
X164442033Y-123671516D01*
X164446461Y-123682140D01*
X164451310Y-123692704D01*
X164456582Y-123703206D01*
X164462274Y-123713647D01*
X164468389Y-123724028D01*
X164474926Y-123734347D01*
X164482017Y-123744699D01*
X164489798Y-123755176D01*
X164498267Y-123765780D01*
X164507425Y-123776509D01*
X164517272Y-123787365D01*
X164527808Y-123798346D01*
X164539033Y-123809454D01*
X164550946Y-123820687D01*
X164563548Y-123832046D01*
X164576840Y-123843531D01*
X164590820Y-123855142D01*
X164605489Y-123866879D01*
X164620846Y-123878742D01*
X164628783Y-123884721D01*
X164636893Y-123890731D01*
X164645174Y-123896773D01*
X164653628Y-123902846D01*
X164662254Y-123908951D01*
X164671053Y-123915087D01*
X164681398Y-123922127D01*
X164691306Y-123928898D01*
X164700777Y-123935400D01*
X164709811Y-123941633D01*
X164718408Y-123947597D01*
X164726568Y-123953292D01*
X164737989Y-123961329D01*
X164748427Y-123968762D01*
X164757882Y-123975589D01*
X164766353Y-123981811D01*
X164776119Y-123989165D01*
X164784137Y-123995443D01*
X164793241Y-124002963D01*
X164800885Y-124009478D01*
X164808850Y-124016435D01*
X164817135Y-124023834D01*
X164825741Y-124031677D01*
X164834667Y-124039962D01*
X164843914Y-124048690D01*
X164851059Y-124055526D01*
X164414109Y-124055526D01*
X164414109Y-124290000D01*
G37*
G36*
X164028694Y-123586580D02*
G01*
X164293209Y-123542616D01*
X164288850Y-123526582D01*
X164284015Y-123511025D01*
X164278706Y-123495945D01*
X164272921Y-123481342D01*
X164266662Y-123467216D01*
X164259927Y-123453567D01*
X164252717Y-123440395D01*
X164245032Y-123427700D01*
X164236872Y-123415482D01*
X164228236Y-123403741D01*
X164219126Y-123392478D01*
X164209540Y-123381691D01*
X164199480Y-123371381D01*
X164188944Y-123361548D01*
X164177933Y-123352193D01*
X164166447Y-123343314D01*
X164154419Y-123334915D01*
X164141782Y-123327057D01*
X164128537Y-123319741D01*
X164114683Y-123312967D01*
X164100220Y-123306735D01*
X164085148Y-123301045D01*
X164069468Y-123295897D01*
X164053179Y-123291290D01*
X164036282Y-123287226D01*
X164018775Y-123283704D01*
X164000660Y-123280723D01*
X163981937Y-123278285D01*
X163962604Y-123276388D01*
X163952710Y-123275643D01*
X163942663Y-123275033D01*
X163932464Y-123274559D01*
X163922113Y-123274220D01*
X163911610Y-123274017D01*
X163900955Y-123273949D01*
X163888727Y-123274019D01*
X163876714Y-123274228D01*
X163864914Y-123274576D01*
X163853327Y-123275064D01*
X163841955Y-123275690D01*
X163830796Y-123276457D01*
X163819851Y-123277362D01*
X163809120Y-123278407D01*
X163798602Y-123279591D01*
X163788298Y-123280914D01*
X163778208Y-123282377D01*
X163768331Y-123283978D01*
X163758668Y-123285720D01*
X163739984Y-123289620D01*
X163722154Y-123294077D01*
X163705179Y-123299092D01*
X163689059Y-123304664D01*
X163673794Y-123310793D01*
X163659383Y-123317479D01*
X163645828Y-123324722D01*
X163633127Y-123332523D01*
X163621281Y-123340880D01*
X163615679Y-123345268D01*
X163605032Y-123354297D01*
X163595071Y-123363613D01*
X163585798Y-123373218D01*
X163577211Y-123383111D01*
X163569311Y-123393291D01*
X163562098Y-123403761D01*
X163555573Y-123414518D01*
X163549734Y-123425563D01*
X163544582Y-123436896D01*
X163540117Y-123448518D01*
X163536338Y-123460428D01*
X163533247Y-123472626D01*
X163530843Y-123485112D01*
X163529126Y-123497886D01*
X163528095Y-123510948D01*
X163527752Y-123524298D01*
X163528067Y-123536010D01*
X163529014Y-123547517D01*
X163530592Y-123558817D01*
X163532801Y-123569911D01*
X163535641Y-123580798D01*
X163539112Y-123591480D01*
X163543214Y-123601956D01*
X163547948Y-123612226D01*
X163553312Y-123622289D01*
X163559308Y-123632147D01*
X163563655Y-123638604D01*
X163570661Y-123648109D01*
X163578307Y-123657391D01*
X163586593Y-123666450D01*
X163595518Y-123675286D01*
X163605083Y-123683898D01*
X163615287Y-123692288D01*
X163626131Y-123700454D01*
X163637615Y-123708396D01*
X163649739Y-123716116D01*
X163658177Y-123721138D01*
X163666899Y-123726061D01*
X163671367Y-123728485D01*
X163660664Y-123731274D01*
X163650447Y-123734144D01*
X163640714Y-123737095D01*
X163628493Y-123741158D01*
X163617133Y-123745365D01*
X163606637Y-123749718D01*
X163597002Y-123754215D01*
X163588231Y-123758858D01*
X163582218Y-123762435D01*
X163573025Y-123768471D01*
X163564223Y-123774854D01*
X163555812Y-123781585D01*
X163547791Y-123788664D01*
X163540161Y-123796091D01*
X163532922Y-123803866D01*
X163526073Y-123811988D01*
X163519615Y-123820458D01*
X163513548Y-123829276D01*
X163507872Y-123838441D01*
X163504304Y-123844745D01*
X163499328Y-123854444D01*
X163494842Y-123864491D01*
X163490845Y-123874886D01*
X163487337Y-123885629D01*
X163484319Y-123896719D01*
X163481790Y-123908157D01*
X163479751Y-123919943D01*
X163478201Y-123932077D01*
X163477141Y-123944558D01*
X163476570Y-123957387D01*
X163476461Y-123966133D01*
X163476641Y-123977188D01*
X163477182Y-123988188D01*
X163478084Y-123999132D01*
X163479346Y-124010021D01*
X163480969Y-124020854D01*
X163482952Y-124031633D01*
X163485296Y-124042355D01*
X163488001Y-124053023D01*
X163491067Y-124063635D01*
X163494493Y-124074192D01*
X163498279Y-124084693D01*
X163502427Y-124095140D01*
X163506935Y-124105530D01*
X163511803Y-124115866D01*
X163517033Y-124126146D01*
X163522623Y-124136371D01*
X163528521Y-124146391D01*
X163534736Y-124156120D01*
X163541267Y-124165557D01*
X163548115Y-124174702D01*
X163555281Y-124183554D01*
X163562762Y-124192115D01*
X163570561Y-124200384D01*
X163578676Y-124208361D01*
X163587108Y-124216046D01*
X163595857Y-124223440D01*
X163604923Y-124230541D01*
X163614305Y-124237350D01*
X163624004Y-124243867D01*
X163634020Y-124250093D01*
X163644353Y-124256026D01*
X163655002Y-124261667D01*
X163666023Y-124266991D01*
X163677469Y-124271971D01*
X163689340Y-124276608D01*
X163701637Y-124280901D01*
X163714360Y-124284851D01*
X163727508Y-124288458D01*
X163741082Y-124291721D01*
X163755081Y-124294640D01*
X163769505Y-124297216D01*
X163784356Y-124299449D01*
X163799631Y-124301338D01*
X163815332Y-124302883D01*
X163831459Y-124304085D01*
X163848011Y-124304944D01*
X163864989Y-124305459D01*
X163882392Y-124305631D01*
X163899324Y-124305506D01*
X163915804Y-124305131D01*
X163931831Y-124304506D01*
X163947407Y-124303631D01*
X163962530Y-124302506D01*
X163977201Y-124301132D01*
X163991419Y-124299507D01*
X164005185Y-124297632D01*
X164018500Y-124295507D01*
X164031361Y-124293133D01*
X164043771Y-124290508D01*
X164055728Y-124287633D01*
X164067234Y-124284509D01*
X164078287Y-124281134D01*
X164088887Y-124277510D01*
X164099036Y-124273635D01*
X164108848Y-124269490D01*
X164118442Y-124265113D01*
X164127815Y-124260506D01*
X164136970Y-124255668D01*
X164145905Y-124250599D01*
X164154620Y-124245299D01*
X164163116Y-124239768D01*
X164171393Y-124234007D01*
X164179450Y-124228014D01*
X164187288Y-124221791D01*
X164194906Y-124215337D01*
X164202305Y-124208651D01*
X164209484Y-124201735D01*
X164216444Y-124194588D01*
X164223185Y-124187210D01*
X164229706Y-124179602D01*
X164235994Y-124171724D01*
X164242097Y-124163600D01*
X164248015Y-124155230D01*
X164253748Y-124146614D01*
X164259296Y-124137751D01*
X164264659Y-124128643D01*
X164269837Y-124119288D01*
X164274830Y-124109687D01*
X164279637Y-124099840D01*
X164284260Y-124089747D01*
X164288697Y-124079408D01*
X164292949Y-124068822D01*
X164297017Y-124057991D01*
X164300899Y-124046913D01*
X164304596Y-124035589D01*
X164308108Y-124024019D01*
X164028694Y-123993000D01*
X164025465Y-124005855D01*
X164021913Y-124017950D01*
X164018040Y-124029285D01*
X164013845Y-124039860D01*
X164009327Y-124049676D01*
X164004488Y-124058731D01*
X163999327Y-124067027D01*
X163991944Y-124076905D01*
X163983989Y-124085433D01*
X163977647Y-124090942D01*
X163968625Y-124097296D01*
X163959024Y-124102803D01*
X163948842Y-124107462D01*
X163938080Y-124111275D01*
X163926738Y-124114240D01*
X163914816Y-124116358D01*
X163902313Y-124117629D01*
X163889231Y-124118053D01*
X163878863Y-124117711D01*
X163868826Y-124116687D01*
X163859120Y-124114981D01*
X163846692Y-124111643D01*
X163834852Y-124107092D01*
X163823600Y-124101328D01*
X163812935Y-124094350D01*
X163802858Y-124086158D01*
X163795686Y-124079218D01*
X163788964Y-124071665D01*
X163782903Y-124063662D01*
X163777504Y-124055207D01*
X163772765Y-124046302D01*
X163768688Y-124036946D01*
X163765272Y-124027140D01*
X163762517Y-124016882D01*
X163760424Y-124006174D01*
X163758991Y-123995015D01*
X163758220Y-123983405D01*
X163758073Y-123975415D01*
X163758390Y-123963268D01*
X163759344Y-123951650D01*
X163760932Y-123940559D01*
X163763156Y-123929997D01*
X163766015Y-123919963D01*
X163769510Y-123910457D01*
X163773640Y-123901479D01*
X163780136Y-123890329D01*
X163787761Y-123880119D01*
X163794221Y-123873077D01*
X163803601Y-123864548D01*
X163813791Y-123857155D01*
X163824789Y-123850900D01*
X163836597Y-123845783D01*
X163845983Y-123842691D01*
X163855825Y-123840239D01*
X163866122Y-123838426D01*
X163876874Y-123837253D01*
X163888081Y-123836720D01*
X163891918Y-123836685D01*
X163902824Y-123837066D01*
X163914935Y-123838211D01*
X163925491Y-123839677D01*
X163936817Y-123841631D01*
X163948915Y-123844073D01*
X163958494Y-123846226D01*
X163968507Y-123848653D01*
X163978953Y-123851355D01*
X163982532Y-123852316D01*
X163968122Y-123646175D01*
X163958366Y-123647317D01*
X163948447Y-123648279D01*
X163937895Y-123648966D01*
X163931729Y-123649106D01*
X163921586Y-123648842D01*
X163911765Y-123648050D01*
X163899172Y-123646172D01*
X163887150Y-123643356D01*
X163875701Y-123639601D01*
X163864825Y-123634907D01*
X163854521Y-123629274D01*
X163844789Y-123622702D01*
X163840138Y-123619064D01*
X163831494Y-123611382D01*
X163824003Y-123603357D01*
X163817664Y-123594987D01*
X163812478Y-123586275D01*
X163808444Y-123577219D01*
X163805563Y-123567819D01*
X163803834Y-123558076D01*
X163803258Y-123547990D01*
X163803931Y-123536089D01*
X163805953Y-123524963D01*
X163809322Y-123514613D01*
X163814039Y-123505037D01*
X163820103Y-123496237D01*
X163827515Y-123488212D01*
X163830857Y-123485219D01*
X163839912Y-123478394D01*
X163849982Y-123472726D01*
X163861064Y-123468214D01*
X163870660Y-123465438D01*
X163880905Y-123463402D01*
X163891799Y-123462106D01*
X163903341Y-123461551D01*
X163906328Y-123461528D01*
X163918433Y-123461963D01*
X163929959Y-123463268D01*
X163940904Y-123465443D01*
X163951269Y-123468489D01*
X163961054Y-123472404D01*
X163970259Y-123477190D01*
X163978884Y-123482846D01*
X163986928Y-123489371D01*
X163994313Y-123496928D01*
X164001079Y-123505797D01*
X164007227Y-123515979D01*
X164012757Y-123527473D01*
X164016499Y-123536956D01*
X164019892Y-123547177D01*
X164022939Y-123558136D01*
X164025637Y-123569834D01*
X164027988Y-123582271D01*
X164028694Y-123586580D01*
G37*
G36*
X162908840Y-123949769D02*
G01*
X162612818Y-123930474D01*
X162610856Y-123944176D01*
X162608542Y-123957256D01*
X162605876Y-123969713D01*
X162602858Y-123981547D01*
X162599487Y-123992760D01*
X162595765Y-124003349D01*
X162591691Y-124013316D01*
X162587264Y-124022660D01*
X162582486Y-124031382D01*
X162575567Y-124042043D01*
X162573739Y-124044535D01*
X162567563Y-124052196D01*
X162557695Y-124062759D01*
X162547101Y-124072211D01*
X162535782Y-124080551D01*
X162523737Y-124087779D01*
X162510967Y-124093895D01*
X162497471Y-124098899D01*
X162488070Y-124101617D01*
X162478347Y-124103841D01*
X162468302Y-124105570D01*
X162457934Y-124106806D01*
X162447243Y-124107547D01*
X162436230Y-124107794D01*
X162423999Y-124107524D01*
X162412308Y-124106712D01*
X162401158Y-124105360D01*
X162390549Y-124103467D01*
X162380482Y-124101032D01*
X162370955Y-124098057D01*
X162359094Y-124093249D01*
X162348194Y-124087478D01*
X162338257Y-124080746D01*
X162333648Y-124077020D01*
X162325176Y-124069170D01*
X162317834Y-124061007D01*
X162311621Y-124052531D01*
X162306538Y-124043742D01*
X162302584Y-124034640D01*
X162299760Y-124025225D01*
X162298065Y-124015497D01*
X162297501Y-124005457D01*
X162298341Y-123993600D01*
X162300864Y-123982149D01*
X162305068Y-123971103D01*
X162310953Y-123960462D01*
X162316872Y-123952242D01*
X162323867Y-123944281D01*
X162331939Y-123936580D01*
X162341907Y-123929001D01*
X162351246Y-123923387D01*
X162362183Y-123917833D01*
X162374717Y-123912339D01*
X162383960Y-123908709D01*
X162393913Y-123905107D01*
X162404575Y-123901531D01*
X162415948Y-123897982D01*
X162428030Y-123894459D01*
X162440822Y-123890963D01*
X162454324Y-123887494D01*
X162468536Y-123884052D01*
X162483458Y-123880637D01*
X162491185Y-123878939D01*
X162503863Y-123876085D01*
X162516312Y-123873172D01*
X162528531Y-123870200D01*
X162540522Y-123867169D01*
X162552284Y-123864079D01*
X162563817Y-123860930D01*
X162575121Y-123857721D01*
X162586196Y-123854453D01*
X162597041Y-123851127D01*
X162607658Y-123847741D01*
X162618046Y-123844295D01*
X162628205Y-123840791D01*
X162638135Y-123837228D01*
X162647836Y-123833605D01*
X162657308Y-123829923D01*
X162666551Y-123826182D01*
X162675566Y-123822382D01*
X162692907Y-123814605D01*
X162709332Y-123806590D01*
X162724842Y-123798340D01*
X162739435Y-123789852D01*
X162753113Y-123781128D01*
X162765874Y-123772167D01*
X162777720Y-123762970D01*
X162783300Y-123758283D01*
X162793947Y-123748687D01*
X162803908Y-123738766D01*
X162813181Y-123728521D01*
X162821768Y-123717952D01*
X162829668Y-123707059D01*
X162836880Y-123695841D01*
X162843406Y-123684298D01*
X162849245Y-123672431D01*
X162854397Y-123660240D01*
X162858862Y-123647725D01*
X162862640Y-123634885D01*
X162865732Y-123621721D01*
X162868136Y-123608232D01*
X162869853Y-123594419D01*
X162870884Y-123580281D01*
X162871227Y-123565819D01*
X162870832Y-123551469D01*
X162869647Y-123537269D01*
X162867672Y-123523219D01*
X162864907Y-123509319D01*
X162861352Y-123495570D01*
X162857007Y-123481971D01*
X162851873Y-123468522D01*
X162845948Y-123455223D01*
X162841559Y-123446441D01*
X162836819Y-123437726D01*
X162831728Y-123429077D01*
X162826286Y-123420495D01*
X162820491Y-123412061D01*
X162814341Y-123403856D01*
X162807836Y-123395880D01*
X162800977Y-123388133D01*
X162793762Y-123380615D01*
X162786192Y-123373326D01*
X162778268Y-123366265D01*
X162769988Y-123359434D01*
X162761354Y-123352832D01*
X162752365Y-123346459D01*
X162743020Y-123340315D01*
X162733321Y-123334399D01*
X162723267Y-123328713D01*
X162712858Y-123323256D01*
X162702095Y-123318027D01*
X162690976Y-123313028D01*
X162679418Y-123308296D01*
X162667338Y-123303869D01*
X162654734Y-123299747D01*
X162641608Y-123295931D01*
X162627959Y-123292420D01*
X162613787Y-123289214D01*
X162599093Y-123286314D01*
X162583875Y-123283719D01*
X162568135Y-123281429D01*
X162551872Y-123279445D01*
X162535086Y-123277766D01*
X162517777Y-123276392D01*
X162499945Y-123275323D01*
X162481591Y-123274560D01*
X162462714Y-123274102D01*
X162443314Y-123273949D01*
X162431329Y-123274018D01*
X162419524Y-123274226D01*
X162407899Y-123274572D01*
X162396453Y-123275056D01*
X162385188Y-123275679D01*
X162374102Y-123276439D01*
X162363196Y-123277339D01*
X162352470Y-123278376D01*
X162341924Y-123279552D01*
X162331558Y-123280866D01*
X162321372Y-123282319D01*
X162311365Y-123283910D01*
X162301538Y-123285639D01*
X162291892Y-123287507D01*
X162273137Y-123291657D01*
X162255102Y-123296360D01*
X162237787Y-123301617D01*
X162221191Y-123307428D01*
X162205314Y-123313791D01*
X162190157Y-123320708D01*
X162175719Y-123328179D01*
X162162000Y-123336203D01*
X162149001Y-123344780D01*
X162136651Y-123353960D01*
X162124943Y-123363792D01*
X162113876Y-123374278D01*
X162103450Y-123385416D01*
X162093665Y-123397206D01*
X162084521Y-123409649D01*
X162076018Y-123422745D01*
X162068156Y-123436493D01*
X162060936Y-123450894D01*
X162054357Y-123465947D01*
X162048419Y-123481653D01*
X162043122Y-123498012D01*
X162038466Y-123515023D01*
X162034451Y-123532686D01*
X162031077Y-123551003D01*
X162028345Y-123569972D01*
X162321681Y-123586580D01*
X162324104Y-123574620D01*
X162326979Y-123563287D01*
X162330304Y-123552581D01*
X162334080Y-123542502D01*
X162338306Y-123533049D01*
X162342984Y-123524224D01*
X162349922Y-123513431D01*
X162357662Y-123503753D01*
X162366202Y-123495189D01*
X162370773Y-123491325D01*
X162380562Y-123484342D01*
X162391244Y-123478289D01*
X162402819Y-123473167D01*
X162412086Y-123469937D01*
X162421855Y-123467231D01*
X162432127Y-123465049D01*
X162442901Y-123463390D01*
X162454178Y-123462255D01*
X162465957Y-123461644D01*
X162474088Y-123461528D01*
X162484021Y-123461727D01*
X162496536Y-123462615D01*
X162508220Y-123464212D01*
X162519071Y-123466519D01*
X162529091Y-123469536D01*
X162538279Y-123473262D01*
X162548594Y-123478919D01*
X162555909Y-123484242D01*
X162563790Y-123491579D01*
X162570335Y-123499393D01*
X162575544Y-123507684D01*
X162580032Y-123518263D01*
X162582597Y-123529528D01*
X162583265Y-123539441D01*
X162582178Y-123549584D01*
X162578917Y-123559283D01*
X162573482Y-123568538D01*
X162567094Y-123576117D01*
X162560550Y-123582184D01*
X162552208Y-123588224D01*
X162543413Y-123592962D01*
X162532733Y-123597616D01*
X162523486Y-123601051D01*
X162513179Y-123604440D01*
X162501811Y-123607781D01*
X162489382Y-123611074D01*
X162475893Y-123614321D01*
X162466311Y-123616459D01*
X162456258Y-123618576D01*
X162443625Y-123621279D01*
X162431218Y-123623986D01*
X162419037Y-123626695D01*
X162407082Y-123629407D01*
X162395353Y-123632121D01*
X162383850Y-123634839D01*
X162372573Y-123637560D01*
X162361523Y-123640283D01*
X162350698Y-123643009D01*
X162340100Y-123645738D01*
X162329728Y-123648470D01*
X162319582Y-123651205D01*
X162309662Y-123653943D01*
X162299968Y-123656684D01*
X162290500Y-123659427D01*
X162272243Y-123664922D01*
X162254890Y-123670429D01*
X162238442Y-123675948D01*
X162222898Y-123681478D01*
X162208259Y-123687019D01*
X162194524Y-123692571D01*
X162181694Y-123698136D01*
X162169768Y-123703711D01*
X162164144Y-123706503D01*
X162153281Y-123712144D01*
X162142796Y-123717952D01*
X162132688Y-123723929D01*
X162122958Y-123730073D01*
X162113607Y-123736385D01*
X162104633Y-123742865D01*
X162096036Y-123749513D01*
X162087818Y-123756329D01*
X162079977Y-123763313D01*
X162072515Y-123770464D01*
X162065430Y-123777784D01*
X162058723Y-123785272D01*
X162052393Y-123792927D01*
X162046442Y-123800751D01*
X162038223Y-123812800D01*
X162035672Y-123816901D01*
X162028470Y-123829403D01*
X162021976Y-123842180D01*
X162016191Y-123855232D01*
X162011114Y-123868558D01*
X162006746Y-123882160D01*
X162003086Y-123896036D01*
X162000134Y-123910187D01*
X161997891Y-123924612D01*
X161996789Y-123934382D01*
X161996002Y-123944274D01*
X161995530Y-123954288D01*
X161995372Y-123964424D01*
X161995582Y-123976334D01*
X161996212Y-123988131D01*
X161997261Y-123999812D01*
X161998730Y-124011379D01*
X162000620Y-124022832D01*
X162002928Y-124034170D01*
X162005657Y-124045394D01*
X162008805Y-124056503D01*
X162012374Y-124067498D01*
X162016362Y-124078378D01*
X162020770Y-124089144D01*
X162025597Y-124099795D01*
X162030845Y-124110332D01*
X162036512Y-124120754D01*
X162042599Y-124131062D01*
X162049106Y-124141256D01*
X162055959Y-124151209D01*
X162063146Y-124160856D01*
X162070667Y-124170198D01*
X162078522Y-124179235D01*
X162086710Y-124187967D01*
X162095233Y-124196393D01*
X162104090Y-124204515D01*
X162113280Y-124212330D01*
X162122805Y-124219841D01*
X162132663Y-124227046D01*
X162142856Y-124233946D01*
X162153382Y-124240540D01*
X162164242Y-124246830D01*
X162175436Y-124252814D01*
X162186964Y-124258492D01*
X162198826Y-124263866D01*
X162211021Y-124268923D01*
X162223609Y-124273654D01*
X162236591Y-124278059D01*
X162249965Y-124282138D01*
X162263732Y-124285890D01*
X162277892Y-124289316D01*
X162292446Y-124292416D01*
X162307392Y-124295190D01*
X162322732Y-124297637D01*
X162338465Y-124299758D01*
X162354590Y-124301552D01*
X162371109Y-124303021D01*
X162388021Y-124304163D01*
X162405326Y-124304978D01*
X162423024Y-124305468D01*
X162441115Y-124305631D01*
X162457020Y-124305533D01*
X162472616Y-124305239D01*
X162487903Y-124304749D01*
X162502882Y-124304063D01*
X162517552Y-124303180D01*
X162531914Y-124302102D01*
X162545966Y-124300828D01*
X162559710Y-124299357D01*
X162573146Y-124297691D01*
X162586273Y-124295828D01*
X162599091Y-124293769D01*
X162611601Y-124291515D01*
X162623802Y-124289064D01*
X162635694Y-124286417D01*
X162647278Y-124283574D01*
X162658553Y-124280535D01*
X162669519Y-124277300D01*
X162680177Y-124273869D01*
X162690526Y-124270242D01*
X162700566Y-124266419D01*
X162710298Y-124262399D01*
X162719721Y-124258184D01*
X162728836Y-124253773D01*
X162737641Y-124249165D01*
X162754327Y-124239362D01*
X162769778Y-124228775D01*
X162783995Y-124217403D01*
X162796977Y-124205247D01*
X162809006Y-124192457D01*
X162820363Y-124179243D01*
X162831049Y-124165605D01*
X162841063Y-124151544D01*
X162850405Y-124137060D01*
X162859076Y-124122151D01*
X162867075Y-124106819D01*
X162874402Y-124091064D01*
X162881058Y-124074885D01*
X162887042Y-124058282D01*
X162892354Y-124041255D01*
X162896995Y-124023805D01*
X162900964Y-124005932D01*
X162904261Y-123987634D01*
X162906886Y-123968914D01*
X162908840Y-123949769D01*
G37*
G36*
X161492170Y-123539792D02*
G01*
X161503922Y-123540110D01*
X161515520Y-123540641D01*
X161526964Y-123541384D01*
X161538254Y-123542339D01*
X161549389Y-123543507D01*
X161560371Y-123544886D01*
X161571199Y-123546478D01*
X161581872Y-123548283D01*
X161592391Y-123550300D01*
X161602757Y-123552528D01*
X161612968Y-123554970D01*
X161623025Y-123557623D01*
X161632928Y-123560489D01*
X161642677Y-123563567D01*
X161652272Y-123566857D01*
X161661713Y-123570360D01*
X161670999Y-123574075D01*
X161680132Y-123578002D01*
X161689111Y-123582142D01*
X161697935Y-123586494D01*
X161715122Y-123595834D01*
X161731692Y-123606023D01*
X161747646Y-123617062D01*
X161762984Y-123628950D01*
X161777705Y-123641687D01*
X161784835Y-123648374D01*
X161791762Y-123655224D01*
X161804957Y-123669270D01*
X161817272Y-123683776D01*
X161828708Y-123698741D01*
X161839263Y-123714167D01*
X161848940Y-123730052D01*
X161857736Y-123746397D01*
X161865653Y-123763202D01*
X161872690Y-123780467D01*
X161878848Y-123798192D01*
X161884126Y-123816377D01*
X161888524Y-123835021D01*
X161892043Y-123854125D01*
X161893472Y-123863850D01*
X161894682Y-123873690D01*
X161895671Y-123883644D01*
X161896441Y-123893714D01*
X161896991Y-123903898D01*
X161897321Y-123914198D01*
X161897431Y-123924612D01*
X161897301Y-123935810D01*
X161896910Y-123946874D01*
X161896259Y-123957802D01*
X161895347Y-123968595D01*
X161894175Y-123979253D01*
X161892742Y-123989776D01*
X161891049Y-124000165D01*
X161889096Y-124010418D01*
X161886882Y-124020536D01*
X161884408Y-124030519D01*
X161881673Y-124040367D01*
X161878677Y-124050081D01*
X161875422Y-124059659D01*
X161871905Y-124069102D01*
X161868129Y-124078410D01*
X161864092Y-124087583D01*
X161859794Y-124096621D01*
X161855236Y-124105525D01*
X161850417Y-124114293D01*
X161845338Y-124122926D01*
X161839999Y-124131424D01*
X161834399Y-124139787D01*
X161828539Y-124148015D01*
X161822418Y-124156109D01*
X161816036Y-124164067D01*
X161809395Y-124171890D01*
X161802492Y-124179578D01*
X161795330Y-124187131D01*
X161787906Y-124194549D01*
X161780223Y-124201833D01*
X161772279Y-124208981D01*
X161764074Y-124215994D01*
X161757231Y-124221509D01*
X161743148Y-124232013D01*
X161728540Y-124241817D01*
X161713404Y-124250921D01*
X161697742Y-124259324D01*
X161681553Y-124267028D01*
X161664838Y-124274030D01*
X161647596Y-124280333D01*
X161629827Y-124285935D01*
X161611532Y-124290837D01*
X161592710Y-124295039D01*
X161583102Y-124296877D01*
X161573362Y-124298541D01*
X161563490Y-124300029D01*
X161553486Y-124301342D01*
X161543351Y-124302480D01*
X161533084Y-124303443D01*
X161522686Y-124304230D01*
X161512156Y-124304843D01*
X161501494Y-124305281D01*
X161490701Y-124305544D01*
X161479775Y-124305631D01*
X161467525Y-124305526D01*
X161455442Y-124305209D01*
X161443526Y-124304682D01*
X161431778Y-124303944D01*
X161420197Y-124302995D01*
X161408784Y-124301836D01*
X161397538Y-124300465D01*
X161386459Y-124298884D01*
X161375548Y-124297092D01*
X161364805Y-124295089D01*
X161354229Y-124292875D01*
X161343820Y-124290450D01*
X161333579Y-124287814D01*
X161323505Y-124284968D01*
X161313599Y-124281910D01*
X161303860Y-124278642D01*
X161294288Y-124275163D01*
X161284884Y-124271473D01*
X161275647Y-124267573D01*
X161266578Y-124263461D01*
X161257676Y-124259139D01*
X161248942Y-124254605D01*
X161231976Y-124244906D01*
X161215679Y-124234364D01*
X161200053Y-124222978D01*
X161185096Y-124210748D01*
X161170808Y-124197676D01*
X161157292Y-124183943D01*
X161144648Y-124169733D01*
X161132875Y-124155046D01*
X161121975Y-124139882D01*
X161111947Y-124124241D01*
X161102790Y-124108123D01*
X161094506Y-124091527D01*
X161087094Y-124074455D01*
X161080554Y-124056906D01*
X161074886Y-124038880D01*
X161070090Y-124020376D01*
X161066165Y-124001396D01*
X161064530Y-123991727D01*
X161063113Y-123981939D01*
X161061914Y-123972031D01*
X161060933Y-123962004D01*
X161060170Y-123951858D01*
X161059625Y-123941593D01*
X161059298Y-123931208D01*
X161059189Y-123920704D01*
X161059212Y-123919483D01*
X161340313Y-123919483D01*
X161340351Y-123925946D01*
X161340654Y-123938535D01*
X161341261Y-123950679D01*
X161342171Y-123962376D01*
X161343385Y-123973626D01*
X161344902Y-123984430D01*
X161346722Y-123994788D01*
X161348846Y-124004699D01*
X161351273Y-124014163D01*
X161355483Y-124027522D01*
X161360375Y-124039877D01*
X161365950Y-124051227D01*
X161372207Y-124061573D01*
X161379147Y-124070914D01*
X161384086Y-124076622D01*
X161391808Y-124084494D01*
X161399908Y-124091537D01*
X161408386Y-124097752D01*
X161417242Y-124103138D01*
X161426475Y-124107695D01*
X161436087Y-124111424D01*
X161446076Y-124114324D01*
X161456443Y-124116395D01*
X161467187Y-124117638D01*
X161478310Y-124118053D01*
X161485711Y-124117866D01*
X161496515Y-124116884D01*
X161506963Y-124115061D01*
X161517054Y-124112396D01*
X161526789Y-124108890D01*
X161536168Y-124104542D01*
X161545191Y-124099353D01*
X161553857Y-124093322D01*
X161562166Y-124086450D01*
X161570120Y-124078736D01*
X161577717Y-124070181D01*
X161584744Y-124060748D01*
X161591081Y-124050400D01*
X161596726Y-124039138D01*
X161601679Y-124026961D01*
X161605942Y-124013870D01*
X161609513Y-123999865D01*
X161611510Y-123990020D01*
X161613200Y-123979768D01*
X161614582Y-123969110D01*
X161615657Y-123958046D01*
X161616426Y-123946575D01*
X161616886Y-123934698D01*
X161617040Y-123922414D01*
X161616884Y-123910277D01*
X161616418Y-123898535D01*
X161615640Y-123887189D01*
X161614552Y-123876237D01*
X161613152Y-123865680D01*
X161611441Y-123855518D01*
X161609420Y-123845751D01*
X161605804Y-123831842D01*
X161601489Y-123818821D01*
X161596473Y-123806688D01*
X161590758Y-123795445D01*
X161584343Y-123785090D01*
X161577228Y-123775624D01*
X161572169Y-123769768D01*
X161564268Y-123761692D01*
X161555995Y-123754467D01*
X161547347Y-123748091D01*
X161538326Y-123742565D01*
X161528931Y-123737890D01*
X161519163Y-123734065D01*
X161509022Y-123731089D01*
X161498507Y-123728964D01*
X161487618Y-123727689D01*
X161476356Y-123727264D01*
X161469223Y-123727450D01*
X161458796Y-123728427D01*
X161448696Y-123730241D01*
X161438921Y-123732892D01*
X161429473Y-123736380D01*
X161420351Y-123740706D01*
X161411555Y-123745868D01*
X161403086Y-123751868D01*
X161394943Y-123758705D01*
X161387126Y-123766380D01*
X161379636Y-123774891D01*
X161372608Y-123784214D01*
X161366272Y-123794412D01*
X161360627Y-123805486D01*
X161355673Y-123817435D01*
X161351411Y-123830261D01*
X161347839Y-123843962D01*
X161345843Y-123853583D01*
X161344153Y-123863593D01*
X161342770Y-123873993D01*
X161341695Y-123884782D01*
X161340927Y-123895959D01*
X161340466Y-123907527D01*
X161340313Y-123919483D01*
X161059212Y-123919483D01*
X161059541Y-123902084D01*
X161060597Y-123883835D01*
X161062358Y-123865959D01*
X161064822Y-123848454D01*
X161067991Y-123831322D01*
X161071863Y-123814562D01*
X161076440Y-123798174D01*
X161081721Y-123782158D01*
X161087706Y-123766514D01*
X161094395Y-123751242D01*
X161101788Y-123736342D01*
X161109885Y-123721814D01*
X161118686Y-123707659D01*
X161128192Y-123693875D01*
X161138401Y-123680464D01*
X161149315Y-123667424D01*
X161156411Y-123659566D01*
X161163717Y-123651956D01*
X161171232Y-123644596D01*
X161178956Y-123637486D01*
X161186890Y-123630625D01*
X161195033Y-123624013D01*
X161203386Y-123617651D01*
X161211948Y-123611539D01*
X161220719Y-123605676D01*
X161229700Y-123600062D01*
X161238891Y-123594698D01*
X161248290Y-123589584D01*
X161257900Y-123584718D01*
X161267718Y-123580103D01*
X161277746Y-123575737D01*
X161287984Y-123571620D01*
X161298431Y-123567753D01*
X161309087Y-123564136D01*
X161319953Y-123560767D01*
X161331028Y-123557649D01*
X161342312Y-123554780D01*
X161353806Y-123552160D01*
X161365510Y-123549790D01*
X161377422Y-123547669D01*
X161389545Y-123545798D01*
X161401876Y-123544176D01*
X161414417Y-123542804D01*
X161427168Y-123541681D01*
X161440128Y-123540808D01*
X161453297Y-123540184D01*
X161466676Y-123539810D01*
X161480264Y-123539685D01*
X161492170Y-123539792D01*
G37*
G36*
X160618819Y-123555317D02*
G01*
X160485463Y-123555317D01*
X160485463Y-123758527D01*
X160618819Y-123758527D01*
X160618819Y-124290000D01*
X160898966Y-124290000D01*
X160898966Y-123758527D01*
X161003502Y-123758527D01*
X161003502Y-123555317D01*
X160898966Y-123555317D01*
X160898966Y-123523810D01*
X160898817Y-123513052D01*
X160898371Y-123502026D01*
X160897626Y-123490734D01*
X160896585Y-123479174D01*
X160895245Y-123467348D01*
X160893608Y-123455254D01*
X160891673Y-123442893D01*
X160889441Y-123430265D01*
X160886739Y-123417736D01*
X160883518Y-123405795D01*
X160879778Y-123394441D01*
X160875519Y-123383675D01*
X160870741Y-123373497D01*
X160865444Y-123363907D01*
X160859628Y-123354904D01*
X160853293Y-123346489D01*
X160846366Y-123338563D01*
X160838775Y-123331026D01*
X160830521Y-123323878D01*
X160821602Y-123317119D01*
X160812019Y-123310750D01*
X160801773Y-123304770D01*
X160790862Y-123299179D01*
X160779287Y-123293977D01*
X160769923Y-123290398D01*
X160759781Y-123287171D01*
X160748862Y-123284296D01*
X160737167Y-123281773D01*
X160724694Y-123279602D01*
X160711444Y-123277783D01*
X160697417Y-123276316D01*
X160687634Y-123275533D01*
X160677505Y-123274908D01*
X160667031Y-123274438D01*
X160656212Y-123274125D01*
X160645048Y-123273969D01*
X160639336Y-123273949D01*
X160625009Y-123274108D01*
X160614804Y-123274391D01*
X160604077Y-123274814D01*
X160592826Y-123275379D01*
X160581053Y-123276085D01*
X160568757Y-123276932D01*
X160555938Y-123277921D01*
X160542596Y-123279050D01*
X160528732Y-123280321D01*
X160514344Y-123281733D01*
X160499434Y-123283286D01*
X160484001Y-123284981D01*
X160468045Y-123286816D01*
X160451566Y-123288793D01*
X160434564Y-123290911D01*
X160425868Y-123292023D01*
X160456642Y-123468122D01*
X160468862Y-123466577D01*
X160480486Y-123465237D01*
X160491515Y-123464104D01*
X160501949Y-123463176D01*
X160511788Y-123462455D01*
X160523248Y-123461843D01*
X160533779Y-123461554D01*
X160537731Y-123461528D01*
X160549043Y-123461778D01*
X160559317Y-123462530D01*
X160570276Y-123464092D01*
X160581174Y-123466827D01*
X160591138Y-123471155D01*
X160592197Y-123471786D01*
X160600648Y-123478484D01*
X160607593Y-123487036D01*
X160612501Y-123496195D01*
X160615400Y-123504026D01*
X160617203Y-123514282D01*
X160618068Y-123524584D01*
X160618549Y-123535460D01*
X160618766Y-123545967D01*
X160618819Y-123555317D01*
G37*
G36*
X160044563Y-123539736D02*
G01*
X160058997Y-123540002D01*
X160073242Y-123540495D01*
X160087298Y-123541215D01*
X160101166Y-123542163D01*
X160114844Y-123543339D01*
X160128334Y-123544742D01*
X160141635Y-123546373D01*
X160154747Y-123548231D01*
X160167670Y-123550317D01*
X160180404Y-123552630D01*
X160188716Y-123554291D01*
X160200760Y-123556944D01*
X160212292Y-123559790D01*
X160223314Y-123562829D01*
X160233825Y-123566061D01*
X160243825Y-123569486D01*
X160253314Y-123573105D01*
X160265171Y-123578230D01*
X160276120Y-123583699D01*
X160286161Y-123589511D01*
X160292779Y-123593650D01*
X160302338Y-123600037D01*
X160311455Y-123606639D01*
X160320130Y-123613455D01*
X160328362Y-123620486D01*
X160336152Y-123627732D01*
X160343500Y-123635192D01*
X160350406Y-123642867D01*
X160356870Y-123650757D01*
X160362891Y-123658861D01*
X160368471Y-123667180D01*
X160373667Y-123675853D01*
X160378631Y-123685109D01*
X160383364Y-123694950D01*
X160387865Y-123705374D01*
X160392134Y-123716382D01*
X160396171Y-123727974D01*
X160399976Y-123740150D01*
X160403550Y-123752909D01*
X160406892Y-123766253D01*
X160410001Y-123780181D01*
X160411946Y-123789790D01*
X160144744Y-123821053D01*
X160143696Y-123817880D01*
X160139309Y-123805824D01*
X160134610Y-123794791D01*
X160129597Y-123784781D01*
X160124271Y-123775793D01*
X160117174Y-123765997D01*
X160109588Y-123757800D01*
X160101513Y-123751200D01*
X160097075Y-123748301D01*
X160087397Y-123743065D01*
X160076650Y-123738577D01*
X160064835Y-123734837D01*
X160055272Y-123732523D01*
X160045108Y-123730630D01*
X160034343Y-123729157D01*
X160022978Y-123728105D01*
X160011011Y-123727474D01*
X159998443Y-123727264D01*
X159985517Y-123727592D01*
X159973606Y-123728577D01*
X159962711Y-123730218D01*
X159952830Y-123732515D01*
X159941907Y-123736310D01*
X159932570Y-123741130D01*
X159923460Y-123748269D01*
X159916239Y-123757153D01*
X159911362Y-123766236D01*
X159907523Y-123776845D01*
X159905199Y-123786432D01*
X159903539Y-123796995D01*
X159902543Y-123808536D01*
X159902211Y-123821053D01*
X159905472Y-123822282D01*
X159915190Y-123825881D01*
X159924809Y-123829346D01*
X159934330Y-123832679D01*
X159943752Y-123835878D01*
X159953074Y-123838944D01*
X159965352Y-123842825D01*
X159977453Y-123846470D01*
X159989379Y-123849878D01*
X160001129Y-123853049D01*
X160010849Y-123855500D01*
X160022513Y-123858273D01*
X160036122Y-123861367D01*
X160046275Y-123863609D01*
X160057293Y-123865995D01*
X160069175Y-123868523D01*
X160081921Y-123871194D01*
X160095532Y-123874009D01*
X160110007Y-123876966D01*
X160125347Y-123880067D01*
X160141551Y-123883311D01*
X160158619Y-123886698D01*
X160176552Y-123890228D01*
X160195349Y-123893901D01*
X160205072Y-123895792D01*
X160221174Y-123899039D01*
X160236629Y-123902493D01*
X160251437Y-123906153D01*
X160265598Y-123910019D01*
X160279113Y-123914091D01*
X160291981Y-123918369D01*
X160304201Y-123922853D01*
X160315775Y-123927543D01*
X160326702Y-123932439D01*
X160336982Y-123937542D01*
X160346616Y-123942850D01*
X160355602Y-123948365D01*
X160363942Y-123954085D01*
X160375238Y-123963053D01*
X160385079Y-123972484D01*
X160393809Y-123982396D01*
X160401680Y-123992806D01*
X160408692Y-124003713D01*
X160414846Y-124015119D01*
X160420141Y-124027023D01*
X160424578Y-124039425D01*
X160428155Y-124052325D01*
X160430875Y-124065724D01*
X160432735Y-124079620D01*
X160433737Y-124094014D01*
X160433928Y-124103886D01*
X160433663Y-124114465D01*
X160432870Y-124124830D01*
X160431549Y-124134982D01*
X160429699Y-124144919D01*
X160427321Y-124154643D01*
X160424414Y-124164153D01*
X160420978Y-124173450D01*
X160417014Y-124182533D01*
X160412521Y-124191402D01*
X160407500Y-124200057D01*
X160401950Y-124208499D01*
X160395872Y-124216727D01*
X160389265Y-124224741D01*
X160382129Y-124232541D01*
X160374465Y-124240128D01*
X160366272Y-124247501D01*
X160357569Y-124254540D01*
X160348374Y-124261125D01*
X160338686Y-124267256D01*
X160328506Y-124272933D01*
X160317834Y-124278156D01*
X160306669Y-124282924D01*
X160295013Y-124287238D01*
X160282863Y-124291099D01*
X160270222Y-124294505D01*
X160257088Y-124297457D01*
X160243462Y-124299954D01*
X160229344Y-124301998D01*
X160214733Y-124303587D01*
X160199630Y-124304723D01*
X160184035Y-124305404D01*
X160167947Y-124305631D01*
X160155767Y-124305513D01*
X160143775Y-124305158D01*
X160131969Y-124304566D01*
X160120350Y-124303738D01*
X160108919Y-124302673D01*
X160097674Y-124301372D01*
X160086616Y-124299834D01*
X160075745Y-124298060D01*
X160065062Y-124296048D01*
X160054565Y-124293801D01*
X160044255Y-124291316D01*
X160034133Y-124288595D01*
X160024197Y-124285637D01*
X160014448Y-124282443D01*
X160004886Y-124279012D01*
X159995512Y-124275345D01*
X159988731Y-124272358D01*
X159978549Y-124267437D01*
X159968355Y-124261988D01*
X159958148Y-124256011D01*
X159947927Y-124249506D01*
X159937694Y-124242473D01*
X159927448Y-124234911D01*
X159917189Y-124226822D01*
X159906917Y-124218205D01*
X159896633Y-124209059D01*
X159886335Y-124199385D01*
X159885421Y-124205236D01*
X159883607Y-124216050D01*
X159881809Y-124225678D01*
X159879439Y-124236673D01*
X159876810Y-124246524D01*
X159874591Y-124252592D01*
X159870432Y-124262179D01*
X159865665Y-124271969D01*
X159860742Y-124281403D01*
X159856049Y-124290000D01*
X159593732Y-124290000D01*
X159595091Y-124287161D01*
X159600226Y-124276126D01*
X159604880Y-124265603D01*
X159609053Y-124255591D01*
X159612745Y-124246090D01*
X159616684Y-124234933D01*
X159619872Y-124224576D01*
X159622309Y-124215017D01*
X159623078Y-124211266D01*
X159624783Y-124201119D01*
X159626178Y-124189875D01*
X159627071Y-124180090D01*
X159627766Y-124169603D01*
X159628262Y-124158414D01*
X159628560Y-124146522D01*
X159628659Y-124133928D01*
X159628659Y-123961737D01*
X159902211Y-123961737D01*
X159902211Y-124002037D01*
X159902227Y-124004981D01*
X159902622Y-124016409D01*
X159903544Y-124027280D01*
X159904992Y-124037593D01*
X159906967Y-124047350D01*
X159910176Y-124058762D01*
X159914209Y-124069303D01*
X159919064Y-124078974D01*
X159924903Y-124087918D01*
X159931886Y-124096433D01*
X159940015Y-124104519D01*
X159949289Y-124112175D01*
X159957532Y-124117991D01*
X159966508Y-124123533D01*
X159976217Y-124128799D01*
X159986333Y-124133608D01*
X159996657Y-124137775D01*
X160007186Y-124141301D01*
X160017921Y-124144187D01*
X160028862Y-124146431D01*
X160040010Y-124148033D01*
X160051363Y-124148995D01*
X160062923Y-124149316D01*
X160068425Y-124149242D01*
X160078920Y-124148654D01*
X160091083Y-124147093D01*
X160102185Y-124144614D01*
X160112225Y-124141216D01*
X160121204Y-124136900D01*
X160130578Y-124130509D01*
X160133358Y-124128086D01*
X160140622Y-124120312D01*
X160146272Y-124111782D01*
X160150308Y-124102497D01*
X160152730Y-124092457D01*
X160153537Y-124081660D01*
X160152415Y-124070496D01*
X160149049Y-124059868D01*
X160144378Y-124051187D01*
X160138058Y-124042901D01*
X160130089Y-124035010D01*
X160121535Y-124028810D01*
X160112485Y-124023824D01*
X160101473Y-124018815D01*
X160091927Y-124015043D01*
X160081277Y-124011259D01*
X160069524Y-124007461D01*
X160056668Y-124003651D01*
X160042708Y-123999828D01*
X160032788Y-123997272D01*
X160022378Y-123994710D01*
X160014582Y-123992892D01*
X160002958Y-123990105D01*
X159991421Y-123987245D01*
X159979969Y-123984312D01*
X159968603Y-123981306D01*
X159957323Y-123978227D01*
X159946129Y-123975075D01*
X159935021Y-123971850D01*
X159923998Y-123968552D01*
X159913062Y-123965181D01*
X159902211Y-123961737D01*
X159628659Y-123961737D01*
X159628659Y-123809818D01*
X159628740Y-123803326D01*
X159629166Y-123793512D01*
X159629956Y-123783608D01*
X159631112Y-123773614D01*
X159632633Y-123763529D01*
X159634518Y-123753355D01*
X159636769Y-123743090D01*
X159639384Y-123732735D01*
X159642364Y-123722290D01*
X159645709Y-123711755D01*
X159649420Y-123701130D01*
X159650717Y-123697583D01*
X159654785Y-123687250D01*
X159659120Y-123677376D01*
X159663721Y-123667962D01*
X159668588Y-123659006D01*
X159673722Y-123650511D01*
X159680980Y-123639898D01*
X159688712Y-123630101D01*
X159696917Y-123621121D01*
X159705595Y-123612958D01*
X159712046Y-123607461D01*
X159722097Y-123599666D01*
X159732600Y-123592411D01*
X159743553Y-123585698D01*
X159754956Y-123579526D01*
X159766811Y-123573894D01*
X159779116Y-123568804D01*
X159791873Y-123564254D01*
X159805080Y-123560246D01*
X159818737Y-123556778D01*
X159832846Y-123553852D01*
X159842565Y-123552136D01*
X159852672Y-123550531D01*
X159863165Y-123549037D01*
X159874047Y-123547654D01*
X159885315Y-123546381D01*
X159896971Y-123545219D01*
X159909014Y-123544168D01*
X159921445Y-123543227D01*
X159934263Y-123542397D01*
X159947468Y-123541678D01*
X159961061Y-123541069D01*
X159975041Y-123540571D01*
X159989408Y-123540183D01*
X160004163Y-123539907D01*
X160019305Y-123539741D01*
X160034835Y-123539685D01*
X160044563Y-123539736D01*
G37*
G36*
X159518750Y-123289581D02*
G01*
X158572797Y-123289581D01*
X158572797Y-123524054D01*
X158890069Y-123524054D01*
X158890069Y-124290000D01*
X159201234Y-124290000D01*
X159201234Y-123524054D01*
X159518750Y-123524054D01*
X159518750Y-123289581D01*
G37*
G36*
X158513202Y-123555317D02*
G01*
X158251374Y-123555317D01*
X158251374Y-123676461D01*
X158246633Y-123666883D01*
X158241875Y-123657685D01*
X158237100Y-123648870D01*
X158229905Y-123636362D01*
X158222671Y-123624713D01*
X158215399Y-123613922D01*
X158208088Y-123603990D01*
X158200739Y-123594917D01*
X158193351Y-123586702D01*
X158185924Y-123579346D01*
X158178458Y-123572849D01*
X158173460Y-123568995D01*
X158163148Y-123562125D01*
X158152241Y-123556172D01*
X158140739Y-123551134D01*
X158128641Y-123547013D01*
X158119178Y-123544523D01*
X158109379Y-123542548D01*
X158099245Y-123541088D01*
X158088776Y-123540143D01*
X158077973Y-123539714D01*
X158074297Y-123539685D01*
X158062608Y-123540018D01*
X158050713Y-123541016D01*
X158038611Y-123542680D01*
X158026304Y-123545009D01*
X158013790Y-123548004D01*
X158001070Y-123551664D01*
X157988145Y-123555989D01*
X157975013Y-123560980D01*
X157961675Y-123566637D01*
X157952668Y-123570778D01*
X157943570Y-123575214D01*
X157938987Y-123577543D01*
X158025449Y-123779288D01*
X158034519Y-123775578D01*
X158046052Y-123771198D01*
X158056944Y-123767468D01*
X158067194Y-123764386D01*
X158076804Y-123761953D01*
X158087914Y-123759825D01*
X158098022Y-123758710D01*
X158103607Y-123758527D01*
X158113694Y-123758928D01*
X158126469Y-123760713D01*
X158138473Y-123763924D01*
X158149706Y-123768563D01*
X158160169Y-123774629D01*
X158169860Y-123782122D01*
X158178781Y-123791043D01*
X158184965Y-123798670D01*
X158188847Y-123804200D01*
X158194082Y-123812637D01*
X158198980Y-123821950D01*
X158203539Y-123832139D01*
X158207761Y-123843203D01*
X158211645Y-123855143D01*
X158215191Y-123867959D01*
X158218400Y-123881651D01*
X158221271Y-123896219D01*
X158223804Y-123911663D01*
X158225999Y-123927982D01*
X158227857Y-123945177D01*
X158229376Y-123963248D01*
X158230558Y-123982195D01*
X158231023Y-123991997D01*
X158231403Y-124002018D01*
X158231698Y-124012258D01*
X158231909Y-124022717D01*
X158232036Y-124033394D01*
X158232078Y-124044291D01*
X158232078Y-124290000D01*
X158513202Y-124290000D01*
X158513202Y-123555317D01*
G37*
G36*
X157501242Y-123539792D02*
G01*
X157512994Y-123540110D01*
X157524592Y-123540641D01*
X157536036Y-123541384D01*
X157547326Y-123542339D01*
X157558461Y-123543507D01*
X157569443Y-123544886D01*
X157580270Y-123546478D01*
X157590944Y-123548283D01*
X157601463Y-123550300D01*
X157611829Y-123552528D01*
X157622040Y-123554970D01*
X157632097Y-123557623D01*
X157642000Y-123560489D01*
X157651749Y-123563567D01*
X157661344Y-123566857D01*
X157670785Y-123570360D01*
X157680071Y-123574075D01*
X157689204Y-123578002D01*
X157698183Y-123582142D01*
X157707007Y-123586494D01*
X157724194Y-123595834D01*
X157740764Y-123606023D01*
X157756718Y-123617062D01*
X157772056Y-123628950D01*
X157786777Y-123641687D01*
X157793907Y-123648374D01*
X157800834Y-123655224D01*
X157814029Y-123669270D01*
X157826344Y-123683776D01*
X157837779Y-123698741D01*
X157848335Y-123714167D01*
X157858012Y-123730052D01*
X157866808Y-123746397D01*
X157874725Y-123763202D01*
X157881762Y-123780467D01*
X157887920Y-123798192D01*
X157893198Y-123816377D01*
X157897596Y-123835021D01*
X157901115Y-123854125D01*
X157902544Y-123863850D01*
X157903754Y-123873690D01*
X157904743Y-123883644D01*
X157905513Y-123893714D01*
X157906063Y-123903898D01*
X157906393Y-123914198D01*
X157906503Y-123924612D01*
X157906372Y-123935810D01*
X157905982Y-123946874D01*
X157905331Y-123957802D01*
X157904419Y-123968595D01*
X157903247Y-123979253D01*
X157901814Y-123989776D01*
X157900121Y-124000165D01*
X157898168Y-124010418D01*
X157895954Y-124020536D01*
X157893480Y-124030519D01*
X157890745Y-124040367D01*
X157887749Y-124050081D01*
X157884494Y-124059659D01*
X157880977Y-124069102D01*
X157877201Y-124078410D01*
X157873163Y-124087583D01*
X157868866Y-124096621D01*
X157864308Y-124105525D01*
X157859489Y-124114293D01*
X157854410Y-124122926D01*
X157849071Y-124131424D01*
X157843471Y-124139787D01*
X157837610Y-124148015D01*
X157831490Y-124156109D01*
X157825108Y-124164067D01*
X157818466Y-124171890D01*
X157811564Y-124179578D01*
X157804401Y-124187131D01*
X157796978Y-124194549D01*
X157789295Y-124201833D01*
X157781351Y-124208981D01*
X157773146Y-124215994D01*
X157766302Y-124221509D01*
X157752220Y-124232013D01*
X157737612Y-124241817D01*
X157722476Y-124250921D01*
X157706814Y-124259324D01*
X157690625Y-124267028D01*
X157673910Y-124274030D01*
X157656668Y-124280333D01*
X157638899Y-124285935D01*
X157620604Y-124290837D01*
X157601782Y-124295039D01*
X157592174Y-124296877D01*
X157582433Y-124298541D01*
X157572562Y-124300029D01*
X157562558Y-124301342D01*
X157552423Y-124302480D01*
X157542156Y-124303443D01*
X157531758Y-124304230D01*
X157521228Y-124304843D01*
X157510566Y-124305281D01*
X157499772Y-124305544D01*
X157488847Y-124305631D01*
X157476597Y-124305526D01*
X157464514Y-124305209D01*
X157452598Y-124304682D01*
X157440850Y-124303944D01*
X157429269Y-124302995D01*
X157417856Y-124301836D01*
X157406610Y-124300465D01*
X157395531Y-124298884D01*
X157384620Y-124297092D01*
X157373877Y-124295089D01*
X157363301Y-124292875D01*
X157352892Y-124290450D01*
X157342651Y-124287814D01*
X157332577Y-124284968D01*
X157322670Y-124281910D01*
X157312931Y-124278642D01*
X157303360Y-124275163D01*
X157293956Y-124271473D01*
X157284719Y-124267573D01*
X157275650Y-124263461D01*
X157266748Y-124259139D01*
X157258014Y-124254605D01*
X157241048Y-124244906D01*
X157224751Y-124234364D01*
X157209124Y-124222978D01*
X157194167Y-124210748D01*
X157179880Y-124197676D01*
X157166364Y-124183943D01*
X157153719Y-124169733D01*
X157141947Y-124155046D01*
X157131047Y-124139882D01*
X157121019Y-124124241D01*
X157111862Y-124108123D01*
X157103578Y-124091527D01*
X157096166Y-124074455D01*
X157089626Y-124056906D01*
X157083958Y-124038880D01*
X157079161Y-124020376D01*
X157075237Y-124001396D01*
X157073602Y-123991727D01*
X157072185Y-123981939D01*
X157070986Y-123972031D01*
X157070005Y-123962004D01*
X157069242Y-123951858D01*
X157068697Y-123941593D01*
X157068370Y-123931208D01*
X157068261Y-123920704D01*
X157068284Y-123919483D01*
X157349385Y-123919483D01*
X157349423Y-123925946D01*
X157349726Y-123938535D01*
X157350333Y-123950679D01*
X157351243Y-123962376D01*
X157352457Y-123973626D01*
X157353974Y-123984430D01*
X157355794Y-123994788D01*
X157357918Y-124004699D01*
X157360345Y-124014163D01*
X157364554Y-124027522D01*
X157369447Y-124039877D01*
X157375022Y-124051227D01*
X157381279Y-124061573D01*
X157388219Y-124070914D01*
X157393158Y-124076622D01*
X157400880Y-124084494D01*
X157408980Y-124091537D01*
X157417458Y-124097752D01*
X157426314Y-124103138D01*
X157435547Y-124107695D01*
X157445158Y-124111424D01*
X157455148Y-124114324D01*
X157465515Y-124116395D01*
X157476259Y-124117638D01*
X157487382Y-124118053D01*
X157494783Y-124117866D01*
X157505587Y-124116884D01*
X157516035Y-124115061D01*
X157526126Y-124112396D01*
X157535861Y-124108890D01*
X157545240Y-124104542D01*
X157554262Y-124099353D01*
X157562929Y-124093322D01*
X157571238Y-124086450D01*
X157579192Y-124078736D01*
X157586789Y-124070181D01*
X157593816Y-124060748D01*
X157600152Y-124050400D01*
X157605797Y-124039138D01*
X157610751Y-124026961D01*
X157615014Y-124013870D01*
X157618585Y-123999865D01*
X157620582Y-123990020D01*
X157622272Y-123979768D01*
X157623654Y-123969110D01*
X157624729Y-123958046D01*
X157625497Y-123946575D01*
X157625958Y-123934698D01*
X157626112Y-123922414D01*
X157625956Y-123910277D01*
X157625490Y-123898535D01*
X157624712Y-123887189D01*
X157623624Y-123876237D01*
X157622224Y-123865680D01*
X157620513Y-123855518D01*
X157618492Y-123845751D01*
X157614876Y-123831842D01*
X157610560Y-123818821D01*
X157605545Y-123806688D01*
X157599830Y-123795445D01*
X157593415Y-123785090D01*
X157586300Y-123775624D01*
X157581241Y-123769768D01*
X157573340Y-123761692D01*
X157565066Y-123754467D01*
X157556419Y-123748091D01*
X157547398Y-123742565D01*
X157538003Y-123737890D01*
X157528235Y-123734065D01*
X157518094Y-123731089D01*
X157507579Y-123728964D01*
X157496690Y-123727689D01*
X157485428Y-123727264D01*
X157478295Y-123727450D01*
X157467868Y-123728427D01*
X157457767Y-123730241D01*
X157447993Y-123732892D01*
X157438545Y-123736380D01*
X157429423Y-123740706D01*
X157420627Y-123745868D01*
X157412158Y-123751868D01*
X157404015Y-123758705D01*
X157396198Y-123766380D01*
X157388708Y-123774891D01*
X157381680Y-123784214D01*
X157375344Y-123794412D01*
X157369699Y-123805486D01*
X157364745Y-123817435D01*
X157360483Y-123830261D01*
X157356911Y-123843962D01*
X157354914Y-123853583D01*
X157353225Y-123863593D01*
X157351842Y-123873993D01*
X157350767Y-123884782D01*
X157349999Y-123895959D01*
X157349538Y-123907527D01*
X157349385Y-123919483D01*
X157068284Y-123919483D01*
X157068613Y-123902084D01*
X157069669Y-123883835D01*
X157071430Y-123865959D01*
X157073894Y-123848454D01*
X157077062Y-123831322D01*
X157080935Y-123814562D01*
X157085512Y-123798174D01*
X157090793Y-123782158D01*
X157096777Y-123766514D01*
X157103466Y-123751242D01*
X157110860Y-123736342D01*
X157118957Y-123721814D01*
X157127758Y-123707659D01*
X157137264Y-123693875D01*
X157147473Y-123680464D01*
X157158387Y-123667424D01*
X157165483Y-123659566D01*
X157172789Y-123651956D01*
X157180304Y-123644596D01*
X157188028Y-123637486D01*
X157195962Y-123630625D01*
X157204105Y-123624013D01*
X157212458Y-123617651D01*
X157221020Y-123611539D01*
X157229791Y-123605676D01*
X157238772Y-123600062D01*
X157247963Y-123594698D01*
X157257362Y-123589584D01*
X157266972Y-123584718D01*
X157276790Y-123580103D01*
X157286818Y-123575737D01*
X157297056Y-123571620D01*
X157307503Y-123567753D01*
X157318159Y-123564136D01*
X157329025Y-123560767D01*
X157340100Y-123557649D01*
X157351384Y-123554780D01*
X157362878Y-123552160D01*
X157374582Y-123549790D01*
X157386494Y-123547669D01*
X157398617Y-123545798D01*
X157410948Y-123544176D01*
X157423489Y-123542804D01*
X157436240Y-123541681D01*
X157449200Y-123540808D01*
X157462369Y-123540184D01*
X157475748Y-123539810D01*
X157489336Y-123539685D01*
X157501242Y-123539792D01*
G37*
G36*
X156939057Y-123555317D02*
G01*
X156678694Y-123555317D01*
X156678694Y-123674508D01*
X156671392Y-123665602D01*
X156664081Y-123657021D01*
X156656761Y-123648765D01*
X156649430Y-123640833D01*
X156642091Y-123633225D01*
X156634742Y-123625941D01*
X156627383Y-123618982D01*
X156620014Y-123612348D01*
X156608944Y-123603004D01*
X156597852Y-123594390D01*
X156586739Y-123586506D01*
X156575604Y-123579352D01*
X156564448Y-123572928D01*
X156560725Y-123570949D01*
X156549275Y-123565362D01*
X156537366Y-123560324D01*
X156524998Y-123555836D01*
X156512170Y-123551898D01*
X156498883Y-123548509D01*
X156485136Y-123545669D01*
X156470930Y-123543380D01*
X156461204Y-123542158D01*
X156451274Y-123541181D01*
X156441140Y-123540449D01*
X156430802Y-123539960D01*
X156420259Y-123539716D01*
X156414912Y-123539685D01*
X156400607Y-123539957D01*
X156386698Y-123540773D01*
X156373183Y-123542133D01*
X156360064Y-123544036D01*
X156347339Y-123546483D01*
X156335010Y-123549474D01*
X156323075Y-123553009D01*
X156311536Y-123557088D01*
X156300391Y-123561710D01*
X156289642Y-123566877D01*
X156279287Y-123572587D01*
X156269328Y-123578841D01*
X156259763Y-123585638D01*
X156250593Y-123592980D01*
X156241819Y-123600865D01*
X156233439Y-123609295D01*
X156225483Y-123618261D01*
X156218040Y-123627819D01*
X156211111Y-123637968D01*
X156204695Y-123648709D01*
X156198792Y-123660042D01*
X156193402Y-123671966D01*
X156188526Y-123684481D01*
X156184163Y-123697588D01*
X156180313Y-123711287D01*
X156176977Y-123725577D01*
X156174154Y-123740459D01*
X156171844Y-123755932D01*
X156170048Y-123771997D01*
X156168764Y-123788653D01*
X156167994Y-123805901D01*
X156167738Y-123823740D01*
X156167738Y-124290000D01*
X156448617Y-124290000D01*
X156448617Y-123885289D01*
X156448840Y-123872642D01*
X156449510Y-123860711D01*
X156450626Y-123849498D01*
X156452189Y-123839001D01*
X156454198Y-123829222D01*
X156457572Y-123817298D01*
X156461739Y-123806648D01*
X156466701Y-123797274D01*
X156472456Y-123789174D01*
X156474018Y-123787348D01*
X156482457Y-123779045D01*
X156491898Y-123772149D01*
X156502340Y-123766661D01*
X156513784Y-123762580D01*
X156523661Y-123760328D01*
X156534178Y-123758977D01*
X156545337Y-123758527D01*
X156557740Y-123759134D01*
X156569548Y-123760954D01*
X156580760Y-123763988D01*
X156591377Y-123768236D01*
X156601399Y-123773697D01*
X156610825Y-123780372D01*
X156619656Y-123788260D01*
X156627891Y-123797362D01*
X156635276Y-123808032D01*
X156640168Y-123817297D01*
X156644507Y-123827644D01*
X156648291Y-123839073D01*
X156651522Y-123851584D01*
X156654199Y-123865176D01*
X156655676Y-123874839D01*
X156656906Y-123884983D01*
X156657891Y-123895607D01*
X156658629Y-123906713D01*
X156659122Y-123918299D01*
X156659368Y-123930366D01*
X156659399Y-123936580D01*
X156659399Y-124290000D01*
X156939057Y-124290000D01*
X156939057Y-123555317D01*
G37*
G36*
X155995791Y-123289581D02*
G01*
X155716133Y-123289581D01*
X155716133Y-123477159D01*
X155995791Y-123477159D01*
X155995791Y-123289581D01*
G37*
G36*
X155995791Y-123555317D02*
G01*
X155716133Y-123555317D01*
X155716133Y-124290000D01*
X155995791Y-124290000D01*
X155995791Y-123555317D01*
G37*
G36*
X154996105Y-124008632D02*
G01*
X154730124Y-124039895D01*
X154732983Y-124049947D01*
X154736063Y-124059831D01*
X154739364Y-124069547D01*
X154742886Y-124079096D01*
X154746630Y-124088476D01*
X154750595Y-124097689D01*
X154754781Y-124106733D01*
X154759189Y-124115610D01*
X154763818Y-124124319D01*
X154768669Y-124132860D01*
X154773741Y-124141233D01*
X154781764Y-124153477D01*
X154790284Y-124165344D01*
X154799303Y-124176833D01*
X154802420Y-124180579D01*
X154812053Y-124191475D01*
X154822175Y-124201908D01*
X154832787Y-124211877D01*
X154843888Y-124221383D01*
X154851561Y-124227462D01*
X154859451Y-124233335D01*
X154867559Y-124239002D01*
X154875884Y-124244463D01*
X154884427Y-124249719D01*
X154893187Y-124254767D01*
X154902165Y-124259610D01*
X154911360Y-124264247D01*
X154920773Y-124268678D01*
X154930404Y-124272903D01*
X154940308Y-124276866D01*
X154950542Y-124280573D01*
X154961107Y-124284025D01*
X154972001Y-124287221D01*
X154983226Y-124290162D01*
X154994781Y-124292846D01*
X155006665Y-124295276D01*
X155018880Y-124297449D01*
X155031426Y-124299367D01*
X155044301Y-124301029D01*
X155057506Y-124302435D01*
X155071042Y-124303586D01*
X155084907Y-124304480D01*
X155099103Y-124305120D01*
X155113629Y-124305503D01*
X155128484Y-124305631D01*
X155142865Y-124305546D01*
X155156943Y-124305291D01*
X155170717Y-124304867D01*
X155184187Y-124304272D01*
X155197354Y-124303508D01*
X155210218Y-124302574D01*
X155222778Y-124301470D01*
X155235035Y-124300197D01*
X155246989Y-124298753D01*
X155258639Y-124297140D01*
X155269986Y-124295357D01*
X155281029Y-124293404D01*
X155291769Y-124291281D01*
X155302206Y-124288988D01*
X155312339Y-124286526D01*
X155322169Y-124283893D01*
X155331733Y-124281071D01*
X155341128Y-124278039D01*
X155350356Y-124274797D01*
X155363883Y-124269541D01*
X155377032Y-124263812D01*
X155389803Y-124257611D01*
X155402197Y-124250938D01*
X155414212Y-124243792D01*
X155425850Y-124236174D01*
X155437110Y-124228084D01*
X155447992Y-124219522D01*
X155455037Y-124213551D01*
X155465225Y-124204290D01*
X155474995Y-124194732D01*
X155484350Y-124184878D01*
X155493288Y-124174728D01*
X155501809Y-124164282D01*
X155509915Y-124153539D01*
X155517603Y-124142500D01*
X155524875Y-124131165D01*
X155531731Y-124119534D01*
X155538170Y-124107606D01*
X155542232Y-124099490D01*
X155547863Y-124086841D01*
X155552939Y-124073441D01*
X155556016Y-124064090D01*
X155558847Y-124054405D01*
X155561432Y-124044387D01*
X155563770Y-124034034D01*
X155565862Y-124023347D01*
X155567708Y-124012327D01*
X155569308Y-124000972D01*
X155570662Y-123989284D01*
X155571770Y-123977262D01*
X155572632Y-123964906D01*
X155573247Y-123952215D01*
X155573616Y-123939191D01*
X155573739Y-123925833D01*
X155573588Y-123911846D01*
X155573136Y-123898154D01*
X155572382Y-123884758D01*
X155571327Y-123871657D01*
X155569971Y-123858853D01*
X155568312Y-123846344D01*
X155566353Y-123834131D01*
X155564092Y-123822213D01*
X155561529Y-123810592D01*
X155558665Y-123799266D01*
X155555499Y-123788236D01*
X155552032Y-123777502D01*
X155548264Y-123767063D01*
X155544193Y-123756920D01*
X155539822Y-123747073D01*
X155535149Y-123737522D01*
X155529702Y-123727273D01*
X155523895Y-123717226D01*
X155517726Y-123707381D01*
X155511198Y-123697737D01*
X155504308Y-123688296D01*
X155497058Y-123679056D01*
X155489448Y-123670017D01*
X155481476Y-123661181D01*
X155473145Y-123652546D01*
X155464452Y-123644114D01*
X155458457Y-123638604D01*
X155449274Y-123630602D01*
X155440044Y-123622990D01*
X155430767Y-123615770D01*
X155421442Y-123608940D01*
X155412071Y-123602500D01*
X155402652Y-123596452D01*
X155393186Y-123590794D01*
X155383672Y-123585527D01*
X155374112Y-123580650D01*
X155364504Y-123576164D01*
X155358073Y-123573391D01*
X155347666Y-123569309D01*
X155336900Y-123565491D01*
X155325775Y-123561936D01*
X155314292Y-123558645D01*
X155302450Y-123555617D01*
X155290250Y-123552852D01*
X155277690Y-123550350D01*
X155264772Y-123548112D01*
X155251495Y-123546137D01*
X155237859Y-123544425D01*
X155223865Y-123542977D01*
X155209512Y-123541792D01*
X155194800Y-123540870D01*
X155179730Y-123540212D01*
X155164300Y-123539817D01*
X155148512Y-123539685D01*
X155137436Y-123539748D01*
X155126526Y-123539934D01*
X155115781Y-123540246D01*
X155105201Y-123540682D01*
X155094787Y-123541242D01*
X155084539Y-123541927D01*
X155074456Y-123542736D01*
X155064539Y-123543670D01*
X155054787Y-123544728D01*
X155035780Y-123547218D01*
X155017435Y-123550206D01*
X154999752Y-123553692D01*
X154982731Y-123557677D01*
X154966373Y-123562159D01*
X154950676Y-123567139D01*
X154935642Y-123572617D01*
X154921270Y-123578594D01*
X154907560Y-123585068D01*
X154894512Y-123592041D01*
X154882126Y-123599511D01*
X154876182Y-123603433D01*
X154864676Y-123611631D01*
X154853608Y-123620289D01*
X154842977Y-123629408D01*
X154832783Y-123638985D01*
X154823025Y-123649023D01*
X154813705Y-123659521D01*
X154804822Y-123670478D01*
X154796375Y-123681896D01*
X154788366Y-123693773D01*
X154780793Y-123706110D01*
X154773658Y-123718907D01*
X154766959Y-123732164D01*
X154760698Y-123745881D01*
X154754873Y-123760057D01*
X154749485Y-123774694D01*
X154744535Y-123789790D01*
X155007584Y-123821053D01*
X155011015Y-123809753D01*
X155015079Y-123799178D01*
X155019777Y-123789328D01*
X155025109Y-123780204D01*
X155031074Y-123771804D01*
X155037672Y-123764129D01*
X155044904Y-123757180D01*
X155052769Y-123750956D01*
X155061241Y-123745403D01*
X155070416Y-123740590D01*
X155080292Y-123736518D01*
X155090871Y-123733187D01*
X155102152Y-123730596D01*
X155114135Y-123728745D01*
X155126821Y-123727634D01*
X155136795Y-123727287D01*
X155140208Y-123727264D01*
X155152982Y-123727710D01*
X155165293Y-123729050D01*
X155177139Y-123731283D01*
X155188522Y-123734408D01*
X155199442Y-123738427D01*
X155209897Y-123743338D01*
X155219889Y-123749143D01*
X155229418Y-123755840D01*
X155238482Y-123763431D01*
X155247083Y-123771915D01*
X155252560Y-123778066D01*
X155260242Y-123788006D01*
X155267169Y-123798863D01*
X155273340Y-123810640D01*
X155278755Y-123823335D01*
X155283415Y-123836950D01*
X155286101Y-123846536D01*
X155288452Y-123856531D01*
X155290467Y-123866934D01*
X155292146Y-123877746D01*
X155293490Y-123888966D01*
X155294497Y-123900594D01*
X155295169Y-123912630D01*
X155295505Y-123925075D01*
X155295547Y-123931451D01*
X155295381Y-123942728D01*
X155294883Y-123953662D01*
X155294052Y-123964252D01*
X155292890Y-123974499D01*
X155291396Y-123984402D01*
X155288533Y-123998613D01*
X155284922Y-124012051D01*
X155280564Y-124024716D01*
X155275460Y-124036609D01*
X155269608Y-124047729D01*
X155263009Y-124058076D01*
X155255663Y-124067650D01*
X155253048Y-124070669D01*
X155244830Y-124079137D01*
X155236204Y-124086772D01*
X155227170Y-124093574D01*
X155217729Y-124099544D01*
X155207879Y-124104680D01*
X155197621Y-124108983D01*
X155186956Y-124112454D01*
X155175883Y-124115091D01*
X155164402Y-124116896D01*
X155152513Y-124117867D01*
X155144360Y-124118053D01*
X155134211Y-124117816D01*
X155124371Y-124117108D01*
X155111731Y-124115429D01*
X155099641Y-124112910D01*
X155088100Y-124109552D01*
X155077110Y-124105354D01*
X155066668Y-124100316D01*
X155056776Y-124094439D01*
X155052036Y-124091186D01*
X155042988Y-124084019D01*
X155034527Y-124075951D01*
X155026654Y-124066983D01*
X155019369Y-124057114D01*
X155012671Y-124046344D01*
X155008034Y-124037676D01*
X155003727Y-124028501D01*
X154999751Y-124018820D01*
X154996105Y-124008632D01*
G37*
G36*
X154656607Y-124086789D02*
G01*
X154378903Y-124055526D01*
X154374415Y-124067658D01*
X154369500Y-124078897D01*
X154364157Y-124089243D01*
X154358387Y-124098696D01*
X154352189Y-124107256D01*
X154345564Y-124114923D01*
X154338512Y-124121697D01*
X154331032Y-124127578D01*
X154320837Y-124133840D01*
X154311961Y-124138086D01*
X154302443Y-124141652D01*
X154292284Y-124144539D01*
X154281484Y-124146747D01*
X154270042Y-124148275D01*
X154257960Y-124149125D01*
X154248477Y-124149316D01*
X154238122Y-124149110D01*
X154228213Y-124148491D01*
X154215696Y-124147026D01*
X154203972Y-124144828D01*
X154193042Y-124141897D01*
X154182906Y-124138233D01*
X154173564Y-124133837D01*
X154165015Y-124128708D01*
X154161039Y-124125868D01*
X154152904Y-124118965D01*
X154146453Y-124111443D01*
X154141053Y-124101886D01*
X154137944Y-124091487D01*
X154137103Y-124081905D01*
X154138210Y-124071294D01*
X154141533Y-124061629D01*
X154147072Y-124052907D01*
X154154826Y-124045131D01*
X154162979Y-124039372D01*
X154168610Y-124036231D01*
X154179764Y-124031737D01*
X154190129Y-124028532D01*
X154202837Y-124025158D01*
X154213906Y-124022518D01*
X154226293Y-124019783D01*
X154239998Y-124016954D01*
X154249867Y-124015015D01*
X154260322Y-124013034D01*
X154271363Y-124011012D01*
X154282989Y-124008947D01*
X154289022Y-124007899D01*
X154306871Y-124004797D01*
X154324025Y-124001720D01*
X154340485Y-123998668D01*
X154356250Y-123995641D01*
X154371320Y-123992639D01*
X154385696Y-123989661D01*
X154399378Y-123986708D01*
X154412364Y-123983780D01*
X154424657Y-123980877D01*
X154436254Y-123977998D01*
X154447158Y-123975145D01*
X154457366Y-123972316D01*
X154466880Y-123969512D01*
X154479849Y-123965352D01*
X154491255Y-123961249D01*
X154501723Y-123956909D01*
X154511877Y-123952041D01*
X154521718Y-123946645D01*
X154531246Y-123940721D01*
X154540460Y-123934269D01*
X154549361Y-123927288D01*
X154557948Y-123919780D01*
X154566222Y-123911744D01*
X154574183Y-123903179D01*
X154581830Y-123894087D01*
X154586754Y-123887732D01*
X154593694Y-123877850D01*
X154599952Y-123867716D01*
X154605526Y-123857328D01*
X154610419Y-123846687D01*
X154614628Y-123835793D01*
X154618155Y-123824645D01*
X154621000Y-123813244D01*
X154623161Y-123801590D01*
X154624640Y-123789683D01*
X154625437Y-123777522D01*
X154625588Y-123769274D01*
X154625221Y-123755849D01*
X154624120Y-123742775D01*
X154622285Y-123730054D01*
X154619715Y-123717685D01*
X154616411Y-123705668D01*
X154612374Y-123694003D01*
X154607602Y-123682690D01*
X154602095Y-123671729D01*
X154595855Y-123661120D01*
X154588880Y-123650864D01*
X154583823Y-123644221D01*
X154575669Y-123634566D01*
X154566962Y-123625382D01*
X154557700Y-123616671D01*
X154547885Y-123608432D01*
X154537516Y-123600666D01*
X154526593Y-123593371D01*
X154515116Y-123586549D01*
X154503085Y-123580199D01*
X154490501Y-123574322D01*
X154477363Y-123568916D01*
X154468296Y-123565575D01*
X154458911Y-123562440D01*
X154449134Y-123559507D01*
X154438967Y-123556777D01*
X154428408Y-123554248D01*
X154417458Y-123551922D01*
X154406117Y-123549799D01*
X154394385Y-123547877D01*
X154382262Y-123546158D01*
X154369747Y-123544641D01*
X154356841Y-123543326D01*
X154343544Y-123542214D01*
X154329856Y-123541304D01*
X154315777Y-123540596D01*
X154301306Y-123540090D01*
X154286445Y-123539787D01*
X154271192Y-123539685D01*
X154255126Y-123539767D01*
X154239597Y-123540010D01*
X154224604Y-123540415D01*
X154210147Y-123540983D01*
X154196226Y-123541713D01*
X154182841Y-123542605D01*
X154169993Y-123543659D01*
X154157680Y-123544876D01*
X154145904Y-123546254D01*
X154134664Y-123547795D01*
X154123960Y-123549498D01*
X154113793Y-123551363D01*
X154104161Y-123553391D01*
X154090720Y-123556736D01*
X154078484Y-123560446D01*
X154066989Y-123564541D01*
X154055859Y-123569039D01*
X154045093Y-123573940D01*
X154034692Y-123579245D01*
X154024657Y-123584954D01*
X154014986Y-123591066D01*
X154005680Y-123597582D01*
X153996739Y-123604501D01*
X153988164Y-123611824D01*
X153979953Y-123619551D01*
X153974681Y-123624926D01*
X153967018Y-123633350D01*
X153959600Y-123642320D01*
X153952427Y-123651835D01*
X153945498Y-123661895D01*
X153938814Y-123672500D01*
X153932375Y-123683650D01*
X153926180Y-123695346D01*
X153920230Y-123707587D01*
X153914525Y-123720373D01*
X153909065Y-123733705D01*
X153905561Y-123742896D01*
X154170808Y-123758527D01*
X154175145Y-123747911D01*
X154180460Y-123738411D01*
X154186754Y-123730028D01*
X154194027Y-123722761D01*
X154202278Y-123716610D01*
X154205247Y-123714808D01*
X154215884Y-123709390D01*
X154227190Y-123704890D01*
X154236716Y-123701951D01*
X154246669Y-123699601D01*
X154257049Y-123697837D01*
X154267857Y-123696662D01*
X154279092Y-123696074D01*
X154284870Y-123696001D01*
X154296315Y-123696260D01*
X154306958Y-123697039D01*
X154316801Y-123698336D01*
X154327976Y-123700688D01*
X154337900Y-123703851D01*
X154348155Y-123708717D01*
X154353990Y-123712609D01*
X154362365Y-123720119D01*
X154368683Y-123728331D01*
X154372944Y-123737243D01*
X154375148Y-123746857D01*
X154375484Y-123752665D01*
X154374163Y-123763586D01*
X154370201Y-123773268D01*
X154363598Y-123781712D01*
X154355835Y-123787963D01*
X154347884Y-123792477D01*
X154337756Y-123796609D01*
X154327377Y-123799821D01*
X154314976Y-123802948D01*
X154304348Y-123805239D01*
X154292582Y-123807482D01*
X154279679Y-123809678D01*
X154265637Y-123811827D01*
X154255644Y-123813233D01*
X154245146Y-123814618D01*
X154234141Y-123815983D01*
X154228450Y-123816657D01*
X154211296Y-123818630D01*
X154194702Y-123820702D01*
X154178667Y-123822874D01*
X154163191Y-123825144D01*
X154148274Y-123827514D01*
X154133916Y-123829983D01*
X154120117Y-123832552D01*
X154106878Y-123835219D01*
X154094197Y-123837986D01*
X154082076Y-123840852D01*
X154070513Y-123843817D01*
X154059510Y-123846882D01*
X154049066Y-123850046D01*
X154039180Y-123853309D01*
X154029854Y-123856671D01*
X154021087Y-123860132D01*
X154008594Y-123865565D01*
X153996667Y-123871424D01*
X153985307Y-123877707D01*
X153974513Y-123884415D01*
X153964287Y-123891549D01*
X153954627Y-123899107D01*
X153945533Y-123907090D01*
X153937007Y-123915499D01*
X153929047Y-123924332D01*
X153921654Y-123933591D01*
X153917040Y-123940000D01*
X153910580Y-123949798D01*
X153904755Y-123959777D01*
X153899566Y-123969937D01*
X153895012Y-123980277D01*
X153891094Y-123990797D01*
X153887811Y-124001497D01*
X153885163Y-124012378D01*
X153883151Y-124023439D01*
X153881775Y-124034680D01*
X153881033Y-124046102D01*
X153880892Y-124053817D01*
X153881227Y-124065556D01*
X153882232Y-124077235D01*
X153883906Y-124088855D01*
X153886250Y-124100414D01*
X153889264Y-124111913D01*
X153892948Y-124123351D01*
X153897301Y-124134730D01*
X153902324Y-124146049D01*
X153908017Y-124157307D01*
X153914380Y-124168506D01*
X153918994Y-124175938D01*
X153926527Y-124186854D01*
X153934836Y-124197345D01*
X153943923Y-124207410D01*
X153953787Y-124217051D01*
X153964428Y-124226267D01*
X153975846Y-124235057D01*
X153983890Y-124240682D01*
X153992279Y-124246117D01*
X154001014Y-124251363D01*
X154010094Y-124256421D01*
X154019519Y-124261290D01*
X154029290Y-124265969D01*
X154039406Y-124270460D01*
X154049896Y-124274719D01*
X154060849Y-124278703D01*
X154072267Y-124282413D01*
X154084148Y-124285847D01*
X154096493Y-124289007D01*
X154109301Y-124291892D01*
X154122573Y-124294503D01*
X154136309Y-124296838D01*
X154150508Y-124298899D01*
X154165172Y-124300685D01*
X154180298Y-124302196D01*
X154195889Y-124303433D01*
X154211943Y-124304395D01*
X154228461Y-124305081D01*
X154245443Y-124305494D01*
X154262888Y-124305631D01*
X154275278Y-124305575D01*
X154287443Y-124305409D01*
X154299383Y-124305131D01*
X154311099Y-124304742D01*
X154322590Y-124304242D01*
X154333857Y-124303630D01*
X154344898Y-124302908D01*
X154355715Y-124302074D01*
X154366308Y-124301129D01*
X154376675Y-124300074D01*
X154386818Y-124298906D01*
X154396737Y-124297628D01*
X154406430Y-124296239D01*
X154425144Y-124293127D01*
X154442958Y-124289570D01*
X154459874Y-124285569D01*
X154475891Y-124281123D01*
X154491009Y-124276232D01*
X154505228Y-124270897D01*
X154518549Y-124265117D01*
X154530971Y-124258893D01*
X154542495Y-124252224D01*
X154547919Y-124248722D01*
X154558276Y-124241421D01*
X154568157Y-124233744D01*
X154577563Y-124225690D01*
X154586494Y-124217261D01*
X154594950Y-124208456D01*
X154602931Y-124199275D01*
X154610437Y-124189718D01*
X154617467Y-124179785D01*
X154624023Y-124169476D01*
X154630103Y-124158791D01*
X154635708Y-124147731D01*
X154640838Y-124136294D01*
X154645493Y-124124482D01*
X154649673Y-124112294D01*
X154653378Y-124099730D01*
X154656607Y-124086789D01*
G37*
M02*
